<svg width="624" height="416" viewBox="0 0 624 416" fill="none" xmlns="http://www.w3.org/2000/svg">
<path d="M217.543 228.975H81.9434L91.969 132.38H228.716L217.543 228.975Z" fill="#F5F5F5"/>
<path d="M96.8528 212.767C96.728 212.767 98.1341 198.224 99.9811 180.319C101.828 162.415 103.426 147.871 103.542 147.871C103.659 147.871 102.261 162.406 100.414 180.319C98.5667 198.232 96.9693 212.776 96.8528 212.767Z" fill="#E0E0E0"/>
<path d="M121.538 151.158C119.276 151.372 117.003 151.444 114.732 151.374C112.462 151.444 110.189 151.372 107.927 151.158C110.188 150.938 112.462 150.866 114.732 150.941C117.003 150.866 119.277 150.938 121.538 151.158Z" fill="#E0E0E0"/>
<path d="M179.454 151.158C179.454 151.274 167.315 151.374 152.347 151.374C137.38 151.374 125.232 151.274 125.232 151.158C125.232 151.041 137.371 150.941 152.347 150.941C167.323 150.941 179.454 151.033 179.454 151.158Z" fill="#E0E0E0"/>
<path d="M119.932 185.478C117.671 185.697 115.398 185.769 113.127 185.694C110.856 185.769 108.582 185.697 106.321 185.478C108.583 185.263 110.856 185.191 113.127 185.261C115.398 185.191 117.671 185.263 119.932 185.478Z" fill="#E0E0E0"/>
<path d="M177.848 185.478C177.848 185.603 165.709 185.694 150.741 185.694C135.774 185.694 123.627 185.603 123.627 185.478C123.627 185.353 135.765 185.261 150.741 185.261C165.717 185.261 177.848 185.361 177.848 185.478Z" fill="#E0E0E0"/>
<path d="M159.378 201.344C159.378 201.469 147.239 201.56 132.271 201.56C117.303 201.56 105.156 201.469 105.156 201.344C105.156 201.219 117.295 201.128 132.271 201.128C147.247 201.128 159.378 201.186 159.378 201.344Z" fill="#E0E0E0"/>
<path d="M127.537 160.851C127.537 160.967 123.252 161.067 117.961 161.067C112.669 161.067 108.384 160.967 108.384 160.851C108.384 160.734 112.677 160.626 117.961 160.626C123.244 160.626 127.537 160.726 127.537 160.851Z" fill="#E0E0E0"/>
<path d="M127.054 175.053C127.054 175.178 122.761 175.269 117.478 175.269C112.195 175.269 107.902 175.178 107.902 175.053C107.902 174.928 112.187 174.836 117.478 174.836C122.77 174.836 127.054 174.936 127.054 175.053Z" fill="#E0E0E0"/>
<path d="M143.245 195.362C143.245 195.478 138.952 195.578 133.669 195.578C128.386 195.578 124.092 195.478 124.092 195.362C124.092 195.245 128.377 195.146 133.669 195.146C138.96 195.146 143.245 195.237 143.245 195.362Z" fill="#E0E0E0"/>
<path d="M197.192 160.851C197.192 160.967 186.243 161.067 172.731 161.067C159.22 161.067 148.262 160.967 148.262 160.851C148.262 160.734 159.22 160.626 172.731 160.626C186.243 160.626 197.192 160.726 197.192 160.851Z" fill="#E0E0E0"/>
<path d="M182.108 175.876C182.108 176.001 171.159 176.093 157.647 176.093C144.135 176.093 133.186 176.001 133.186 175.876C133.186 175.752 144.135 175.66 157.647 175.66C171.159 175.66 182.108 175.76 182.108 175.876Z" fill="#E0E0E0"/>
<path d="M198.948 195.362C198.948 195.478 187.99 195.578 174.487 195.578C160.983 195.578 150.018 195.478 150.018 195.362C150.018 195.245 160.975 195.146 174.487 195.146C187.998 195.146 198.948 195.237 198.948 195.362Z" fill="#E0E0E0"/>
<path d="M154.277 212.767C154.277 212.884 143.32 212.984 129.808 212.984C116.297 212.984 105.348 212.884 105.348 212.767C105.348 212.651 116.297 212.551 129.808 212.551C143.32 212.551 154.277 212.643 154.277 212.767Z" fill="#E0E0E0"/>
<path d="M208.382 212.767C208.382 212.884 197.425 212.984 183.922 212.984C170.418 212.984 159.452 212.884 159.452 212.767C159.452 212.651 170.402 212.551 183.922 212.551C197.442 212.551 208.382 212.643 208.382 212.767Z" fill="#E0E0E0"/>
<path d="M154.269 218.425C154.269 218.55 143.32 218.641 129.808 218.641C116.297 218.641 105.339 218.55 105.339 218.425C105.339 218.3 116.297 218.209 129.808 218.209C143.32 218.209 154.269 218.308 154.269 218.425Z" fill="#E0E0E0"/>
<path d="M156.649 164.927C156.649 165.044 145.7 165.144 132.188 165.144C118.676 165.144 107.719 165.044 107.719 164.927C107.719 164.811 118.676 164.711 132.188 164.711C145.7 164.711 156.649 164.803 156.649 164.927Z" fill="#E0E0E0"/>
<path d="M143.603 160.9C141.511 161.115 139.407 161.187 137.305 161.117C135.2 161.187 133.093 161.115 130.998 160.9C133.093 160.681 135.2 160.609 137.305 160.684C139.407 160.609 141.511 160.681 143.603 160.9Z" fill="#E0E0E0"/>
<path d="M118.335 190.145C116.24 190.359 114.133 190.432 112.028 190.362C109.927 190.432 107.822 190.359 105.73 190.145C107.822 189.931 109.927 189.859 112.028 189.929C114.133 189.859 116.24 189.931 118.335 190.145Z" fill="#E0E0E0"/>
<path d="M118.036 195.362C115.943 195.576 113.839 195.648 111.737 195.578C109.633 195.648 107.526 195.576 105.431 195.362C107.525 195.143 109.633 195.07 111.737 195.146C113.839 195.071 115.944 195.143 118.036 195.362Z" fill="#E0E0E0"/>
<path d="M227.219 142.596C227.219 142.721 196.726 142.813 159.12 142.813C121.513 142.813 91.0038 142.721 91.0038 142.596C91.0038 142.472 121.497 142.38 159.12 142.38C196.743 142.38 227.219 142.48 227.219 142.596Z" fill="#E0E0E0"/>
<path d="M100.197 139.61C101.089 139.61 101.812 138.887 101.812 137.995C101.812 137.104 101.089 136.381 100.197 136.381C99.306 136.381 98.5834 137.104 98.5834 137.995C98.5834 138.887 99.306 139.61 100.197 139.61Z" fill="white"/>
<path d="M107.128 139.61C108.019 139.61 108.742 138.887 108.742 137.995C108.742 137.104 108.019 136.381 107.128 136.381C106.237 136.381 105.514 137.104 105.514 137.995C105.514 138.887 106.237 139.61 107.128 139.61Z" fill="white"/>
<path d="M114.059 139.61C114.95 139.61 115.673 138.887 115.673 137.995C115.673 137.104 114.95 136.381 114.059 136.381C113.167 136.381 112.444 137.104 112.444 137.995C112.444 138.887 113.167 139.61 114.059 139.61Z" fill="white"/>
<path d="M569.637 180.677H434.037L444.063 84.0902H580.811L569.637 180.677Z" fill="#F5F5F5"/>
<path d="M448.947 164.47C448.83 164.47 450.228 149.926 452.075 132.022C453.922 114.117 455.52 99.5737 455.636 99.6237C455.753 99.6736 454.355 114.159 452.508 132.072C450.661 149.985 449.063 164.478 448.947 164.47Z" fill="#E0E0E0"/>
<path d="M473.632 102.86C469.1 103.149 464.553 103.149 460.021 102.86C464.553 102.572 469.1 102.572 473.632 102.86Z" fill="#E0E0E0"/>
<path d="M531.556 102.86C531.556 102.977 519.417 103.076 504.441 103.076C489.465 103.076 477.326 102.977 477.326 102.86C477.326 102.744 489.465 102.644 504.441 102.644C519.417 102.644 531.556 102.744 531.556 102.86Z" fill="#E0E0E0"/>
<path d="M472.035 137.188C467.5 137.477 462.95 137.477 458.415 137.188C462.95 136.9 467.5 136.9 472.035 137.188Z" fill="#E0E0E0"/>
<path d="M529.992 137.188C529.992 137.305 517.853 137.405 502.877 137.405C487.901 137.405 475.762 137.305 475.762 137.188C475.762 137.072 487.901 136.972 502.877 136.972C517.853 136.972 529.992 137.064 529.992 137.188Z" fill="#E0E0E0"/>
<path d="M511.48 153.013C511.48 153.13 499.341 153.229 484.365 153.229C469.389 153.229 457.25 153.13 457.25 153.013C457.25 152.897 469.389 152.797 484.365 152.797C499.341 152.797 511.48 152.888 511.48 153.013Z" fill="#E0E0E0"/>
<path d="M479.639 112.553C479.639 112.669 475.346 112.769 470.063 112.769C464.78 112.769 460.487 112.669 460.487 112.553C460.487 112.436 464.771 112.32 470.088 112.32C475.404 112.32 479.639 112.428 479.639 112.553Z" fill="#E0E0E0"/>
<path d="M479.148 126.755C479.148 126.88 474.864 126.971 469.572 126.971C464.281 126.971 459.996 126.88 459.996 126.755C459.996 126.63 464.281 126.539 469.572 126.539C474.864 126.539 479.148 126.639 479.148 126.755Z" fill="#E0E0E0"/>
<path d="M495.339 147.064C495.339 147.181 491.054 147.281 485.763 147.281C480.471 147.281 476.187 147.181 476.187 147.064C476.187 146.948 480.471 146.848 485.763 146.848C491.054 146.848 495.339 146.948 495.339 147.064Z" fill="#E0E0E0"/>
<path d="M549.311 112.553C549.311 112.669 538.354 112.769 524.842 112.769C511.33 112.769 500.381 112.669 500.381 112.553C500.381 112.437 511.33 112.337 524.842 112.337C538.354 112.337 549.311 112.428 549.311 112.553Z" fill="#E0E0E0"/>
<path d="M534.21 127.579C534.21 127.704 523.253 127.795 509.741 127.795C496.229 127.795 485.28 127.704 485.28 127.579C485.28 127.454 496.229 127.363 509.741 127.363C523.253 127.363 534.21 127.462 534.21 127.579Z" fill="#E0E0E0"/>
<path d="M551.042 147.064C551.042 147.181 540.092 147.281 526.581 147.281C513.069 147.281 502.12 147.181 502.12 147.064C502.12 146.948 513.069 146.848 526.581 146.848C540.092 146.848 551.042 146.948 551.042 147.064Z" fill="#E0E0E0"/>
<path d="M506.371 164.47C506.371 164.586 495.414 164.686 481.911 164.686C468.407 164.686 457.442 164.586 457.442 164.47C457.442 164.353 468.391 164.253 481.911 164.253C495.431 164.253 506.371 164.345 506.371 164.47Z" fill="#E0E0E0"/>
<path d="M560.477 164.47C560.477 164.586 549.527 164.686 536.016 164.686C522.504 164.686 511.547 164.586 511.547 164.47C511.547 164.353 522.504 164.253 536.016 164.253C549.527 164.253 560.477 164.345 560.477 164.47Z" fill="#E0E0E0"/>
<path d="M506.363 170.127C506.363 170.252 495.414 170.344 481.902 170.344C468.391 170.344 457.442 170.252 457.442 170.127C457.442 170.003 468.391 169.911 481.902 169.911C495.414 169.911 506.363 170.011 506.363 170.127Z" fill="#E0E0E0"/>
<path d="M508.751 116.63C508.751 116.746 497.794 116.846 484.282 116.846C470.77 116.846 459.821 116.746 459.821 116.63C459.821 116.513 470.77 116.413 484.282 116.413C497.794 116.413 508.751 116.48 508.751 116.63Z" fill="#E0E0E0"/>
<path d="M495.697 112.603C491.503 112.891 487.294 112.891 483.101 112.603C487.294 112.314 491.503 112.314 495.697 112.603Z" fill="#E0E0E0"/>
<path d="M470.429 141.848C466.232 142.136 462.021 142.136 457.824 141.848C462.021 141.559 466.232 141.559 470.429 141.848Z" fill="#E0E0E0"/>
<path d="M470.13 147.064C465.936 147.353 461.727 147.353 457.533 147.064C461.727 146.776 465.936 146.776 470.13 147.064Z" fill="#E0E0E0"/>
<path d="M579.321 94.2988C579.321 94.4236 548.82 94.5152 511.214 94.5152C473.607 94.5152 443.106 94.4236 443.106 94.2988C443.106 94.174 473.591 94.0825 511.214 94.0825C548.837 94.0825 579.321 94.1824 579.321 94.2988Z" fill="#E0E0E0"/>
<path d="M452.292 91.312C453.183 91.312 453.906 90.5894 453.906 89.6979C453.906 88.8065 453.183 88.0839 452.292 88.0839C451.4 88.0839 450.677 88.8065 450.677 89.6979C450.677 90.5894 451.4 91.312 452.292 91.312Z" fill="white"/>
<path d="M459.222 91.312C460.114 91.312 460.836 90.5894 460.836 89.6979C460.836 88.8065 460.114 88.0839 459.222 88.0839C458.331 88.0839 457.608 88.8065 457.608 89.6979C457.608 90.5894 458.331 91.312 459.222 91.312Z" fill="white"/>
<path d="M466.153 91.312C467.044 91.312 467.767 90.5894 467.767 89.6979C467.767 88.8065 467.044 88.0839 466.153 88.0839C465.261 88.0839 464.539 88.8065 464.539 89.6979C464.539 90.5894 465.261 91.312 466.153 91.312Z" fill="white"/>
<path d="M285.234 117.611H200.778L207.018 57.4496H292.19L285.234 117.611Z" fill="#EBEBEB"/>
<path d="M210.063 107.511C209.947 107.511 210.779 98.4505 211.927 87.3017C213.075 76.1529 214.107 67.1174 214.231 67.1257C214.356 67.1341 213.516 76.1945 212.359 87.3433C211.203 98.4921 210.18 107.528 210.063 107.511Z" fill="#E0E0E0"/>
<path d="M225.48 69.1392C222.661 69.4276 219.821 69.4276 217.002 69.1392C219.821 68.8507 222.661 68.8507 225.48 69.1392Z" fill="#E0E0E0"/>
<path d="M261.514 69.1392C261.514 69.264 253.951 69.3555 244.624 69.3555C235.298 69.3555 227.735 69.264 227.735 69.1392C227.735 69.0144 235.298 68.9229 244.624 68.9229C253.951 68.9229 261.514 69.056 261.514 69.1392Z" fill="#E0E0E0"/>
<path d="M224.44 90.5216C221.621 90.8101 218.781 90.8101 215.962 90.5216C218.781 90.2332 221.621 90.2332 224.44 90.5216Z" fill="#E0E0E0"/>
<path d="M260.516 90.5216C260.516 90.6381 252.953 90.7379 243.626 90.7379C234.299 90.7379 226.736 90.6381 226.736 90.5216C226.736 90.4051 234.299 90.3053 243.626 90.3053C252.953 90.3053 260.516 90.4051 260.516 90.5216Z" fill="#E0E0E0"/>
<path d="M249.009 100.372C249.009 100.497 241.446 100.589 232.119 100.589C222.793 100.589 215.238 100.497 215.238 100.372C215.238 100.248 222.793 100.156 232.119 100.156C241.446 100.156 249.009 100.256 249.009 100.372Z" fill="#E0E0E0"/>
<path d="M229.174 75.1796C227.193 75.3936 225.2 75.4659 223.209 75.3959C221.22 75.4661 219.23 75.3938 217.252 75.1796C219.229 74.9603 221.22 74.888 223.209 74.9632C225.2 74.8882 227.194 74.9605 229.174 75.1796Z" fill="#E0E0E0"/>
<path d="M228.875 84.032C226.894 84.251 224.9 84.3233 222.909 84.2483C220.918 84.3233 218.924 84.251 216.944 84.032C218.924 83.8179 220.918 83.7456 222.909 83.8157C224.9 83.7456 226.894 83.8179 228.875 84.032Z" fill="#E0E0E0"/>
<path d="M238.958 96.67C236.978 96.8891 234.984 96.9614 232.993 96.8864C231.002 96.9614 229.008 96.8891 227.027 96.67C229.008 96.456 231.002 96.3837 232.993 96.4537C234.984 96.3837 236.978 96.456 238.958 96.67Z" fill="#E0E0E0"/>
<path d="M272.571 75.1795C272.571 75.2959 265.749 75.3958 257.337 75.3958C248.926 75.3958 242.12 75.2959 242.12 75.1795C242.12 75.063 248.942 74.9631 257.362 74.9631C265.782 74.9631 272.571 75.0547 272.571 75.1795Z" fill="#E0E0E0"/>
<path d="M263.161 84.5394C263.161 84.6559 256.339 84.7558 247.927 84.7558C239.516 84.7558 232.693 84.6559 232.693 84.5394C232.693 84.423 239.516 84.3231 247.927 84.3231C256.339 84.3231 263.161 84.423 263.161 84.5394Z" fill="#E0E0E0"/>
<path d="M273.653 96.6701C273.653 96.7949 266.83 96.8864 258.419 96.8864C250.007 96.8864 243.177 96.7949 243.177 96.6701C243.177 96.5453 249.999 96.4537 258.419 96.4537C266.839 96.4537 273.653 96.5536 273.653 96.6701Z" fill="#E0E0E0"/>
<path d="M245.831 107.511C245.831 107.636 239.008 107.727 230.589 107.727C222.169 107.727 215.355 107.636 215.355 107.511C215.355 107.386 222.177 107.295 230.589 107.295C239 107.295 245.831 107.395 245.831 107.511Z" fill="#E0E0E0"/>
<path d="M279.56 107.511C279.56 107.636 272.738 107.727 264.326 107.727C255.915 107.727 249.084 107.636 249.084 107.511C249.084 107.386 255.906 107.295 264.326 107.295C272.746 107.295 279.56 107.395 279.56 107.511Z" fill="#E0E0E0"/>
<path d="M245.822 111.039C245.822 111.164 239 111.255 230.589 111.255C222.177 111.255 215.355 111.164 215.355 111.039C215.355 110.914 222.169 110.822 230.589 110.822C239.008 110.822 245.822 110.922 245.822 111.039Z" fill="#E0E0E0"/>
<path d="M247.303 77.7171C247.303 77.8419 240.481 77.9334 232.069 77.9334C223.658 77.9334 216.836 77.8419 216.836 77.7171C216.836 77.5923 223.658 77.5007 232.069 77.5007C240.481 77.5007 247.303 77.6006 247.303 77.7171Z" fill="#E0E0E0"/>
<path d="M239.183 75.2128C236.573 75.501 233.939 75.501 231.329 75.2128C233.939 74.9245 236.573 74.9245 239.183 75.2128Z" fill="#E0E0E0"/>
<path d="M223.442 93.4253C220.834 93.7138 218.203 93.7138 215.596 93.4253C218.203 93.1369 220.834 93.1369 223.442 93.4253Z" fill="#E0E0E0"/>
<path d="M223.259 96.67C220.648 96.9583 218.015 96.9583 215.404 96.67C218.015 96.3818 220.648 96.3818 223.259 96.67Z" fill="#E0E0E0"/>
<path d="M291.258 63.8143C291.258 63.9308 272.272 64.0307 248.826 64.0307C225.38 64.0307 206.394 63.9308 206.394 63.8143C206.394 63.6979 225.38 63.598 248.826 63.598C272.272 63.598 291.258 63.6895 291.258 63.8143Z" fill="#E0E0E0"/>
<path d="M213.15 60.944C213.143 61.1426 213.078 61.3348 212.962 61.4964C212.847 61.658 212.686 61.7817 212.5 61.852C212.314 61.9223 212.111 61.936 211.918 61.8915C211.724 61.8469 211.548 61.746 211.412 61.6015C211.275 61.457 211.185 61.2753 211.151 61.0794C211.118 60.8835 211.143 60.6821 211.224 60.5006C211.305 60.3191 211.438 60.1656 211.606 60.0594C211.774 59.9532 211.969 59.8992 212.168 59.904C212.301 59.9072 212.432 59.9367 212.553 59.9909C212.675 60.045 212.784 60.1226 212.876 60.2193C212.967 60.316 213.038 60.4299 213.085 60.5542C213.132 60.6786 213.154 60.8111 213.15 60.944Z" fill="white"/>
<path d="M217.468 60.9439C217.461 61.1415 217.397 61.3328 217.282 61.4939C217.168 61.655 217.008 61.7788 216.824 61.85C216.639 61.9211 216.438 61.9363 216.245 61.8938C216.052 61.8513 215.876 61.7529 215.738 61.6108C215.601 61.4688 215.508 61.2895 215.472 61.0951C215.436 60.9008 215.458 60.7001 215.535 60.5181C215.612 60.3361 215.741 60.1808 215.905 60.0716C216.07 59.9623 216.263 59.904 216.461 59.9039C216.596 59.9039 216.73 59.931 216.854 59.9836C216.979 60.0363 217.091 60.1134 217.185 60.2105C217.279 60.3075 217.352 60.4224 217.401 60.5484C217.45 60.6745 217.472 60.809 217.468 60.9439Z" fill="white"/>
<path d="M221.786 60.9439C221.779 61.1415 221.715 61.3328 221.6 61.4939C221.486 61.655 221.326 61.7788 221.142 61.85C220.958 61.9211 220.756 61.9363 220.563 61.8938C220.37 61.8513 220.194 61.7529 220.056 61.6108C219.919 61.4688 219.826 61.2895 219.79 61.0951C219.754 60.9008 219.776 60.7001 219.853 60.5181C219.93 60.3361 220.059 60.1808 220.224 60.0716C220.388 59.9623 220.582 59.904 220.779 59.9039C220.914 59.9039 221.048 59.931 221.172 59.9836C221.297 60.0363 221.409 60.1134 221.503 60.2105C221.597 60.3075 221.67 60.4224 221.719 60.5484C221.768 60.6745 221.79 60.809 221.786 60.9439Z" fill="white"/>
<path d="M514.766 222.602H472.235V360.264H514.766V222.602Z" fill="#EBEBEB"/>
<path d="M550.875 222.626H514.766V360.239H550.875V222.626Z" fill="#E0E0E0"/>
<path d="M509.675 228.176H475.554V257.829H509.675V228.176Z" fill="#E0E0E0"/>
<path d="M509.675 261.19H475.554V290.842H509.675V261.19Z" fill="#E0E0E0"/>
<path d="M509.675 294.203H475.554V323.856H509.675V294.203Z" fill="#E0E0E0"/>
<path d="M509.675 327.226H475.554V356.878H509.675V327.226Z" fill="#E0E0E0"/>
<path d="M492.619 233.651C492.62 233.886 492.552 234.117 492.422 234.314C492.292 234.511 492.107 234.664 491.89 234.756C491.673 234.847 491.433 234.872 491.202 234.827C490.97 234.782 490.758 234.669 490.59 234.503C490.423 234.337 490.309 234.125 490.262 233.894C490.216 233.663 490.239 233.423 490.329 233.206C490.419 232.988 490.571 232.801 490.767 232.67C490.963 232.539 491.193 232.469 491.429 232.469C491.743 232.469 492.044 232.593 492.267 232.815C492.49 233.036 492.616 233.336 492.619 233.651Z" fill="#FAFAFA"/>
<path d="M492.619 267.072C492.62 267.308 492.552 267.538 492.422 267.735C492.292 267.932 492.107 268.086 491.89 268.177C491.673 268.268 491.433 268.293 491.202 268.248C490.97 268.203 490.758 268.091 490.59 267.925C490.423 267.758 490.309 267.546 490.262 267.315C490.216 267.084 490.239 266.845 490.329 266.627C490.419 266.409 490.571 266.223 490.767 266.092C490.963 265.961 491.193 265.891 491.429 265.891C491.743 265.89 492.044 266.015 492.267 266.236C492.49 266.457 492.616 266.758 492.619 267.072Z" fill="#FAFAFA"/>
<path d="M492.619 300.452C492.619 300.687 492.549 300.917 492.418 301.113C492.287 301.308 492.101 301.461 491.884 301.551C491.667 301.641 491.427 301.665 491.197 301.619C490.966 301.573 490.754 301.46 490.587 301.293C490.421 301.127 490.308 300.915 490.262 300.684C490.216 300.453 490.24 300.214 490.33 299.997C490.42 299.779 490.572 299.593 490.768 299.463C490.963 299.332 491.193 299.262 491.429 299.262C491.744 299.262 492.047 299.387 492.27 299.611C492.493 299.834 492.619 300.136 492.619 300.452Z" fill="#FAFAFA"/>
<path d="M492.619 333.848C492.62 334.084 492.552 334.315 492.422 334.512C492.292 334.708 492.107 334.862 491.89 334.953C491.673 335.045 491.433 335.069 491.202 335.025C490.97 334.98 490.758 334.867 490.59 334.701C490.423 334.535 490.309 334.323 490.262 334.092C490.216 333.861 490.239 333.621 490.329 333.403C490.419 333.185 490.571 332.999 490.767 332.868C490.963 332.737 491.193 332.667 491.429 332.667C491.743 332.667 492.044 332.791 492.267 333.012C492.49 333.234 492.616 333.534 492.619 333.848Z" fill="#FAFAFA"/>
<path d="M477.152 360.264H472.235V387.878H477.152V360.264Z" fill="#E0E0E0"/>
<path d="M514.592 360.264H509.675V387.878H514.592V360.264Z" fill="#E0E0E0"/>
<path d="M550.343 360.264H545.426V387.878H550.343V360.264Z" fill="#E0E0E0"/>
<path d="M114.94 380.083C113.684 379.009 110.872 375.598 113.035 371.629C113.867 370.182 115.531 369.458 117.054 368.817C118.623 368.287 120.104 367.525 121.447 366.554C123.835 364.533 124.492 361.171 126.073 358.476C127.895 355.389 131.289 353.068 134.875 353.234C138.977 353.417 142.363 356.753 143.952 360.556C145.541 364.358 145.558 368.584 145.616 372.694C145.616 374.966 145.533 377.528 143.852 379.068C142.313 380.482 139.984 380.499 137.887 380.432L115.423 379.75" fill="#F5F5F5"/>
<path d="M157.847 318.656H98.8496L109.483 381.73C109.698 383.042 110.282 384.267 111.165 385.261C112.049 386.255 113.196 386.978 114.475 387.346L114.683 387.404C114.855 387.457 115.03 387.502 115.207 387.537C115.628 387.634 116.057 387.693 116.488 387.712V387.77L116.779 387.729H143.07C143.557 387.726 144.042 387.676 144.518 387.579C146.051 387.347 147.465 386.618 148.542 385.504C149.62 384.39 150.302 382.953 150.484 381.414L155.592 337.95L155.825 336.22L157.847 319.005V318.656ZM146.715 358.892H140.666L141.273 340.588H148.287L146.715 358.892ZM148.878 340.588H154.702L152.539 358.892H147.272L148.878 340.588ZM131.58 379.184L131.214 363.285H139.934L139.401 379.184H131.58ZM122.154 363.285H130.632L131.006 379.184H123.394L122.154 363.285ZM122.811 379.184H115.706C115.032 374.891 114.15 369.308 113.21 363.285H121.58L122.811 379.184ZM121.813 358.892L120.382 340.588H130.1L130.524 358.892H121.813ZM131.115 358.892L130.69 340.588H140.674L140.059 358.892H131.115ZM130.582 336.195L130.191 319.238H141.398L140.832 336.195H130.582ZM130 336.195H120.016L118.693 319.238H129.584L130 336.195ZM119.45 336.195H108.917C108.542 333.857 108.185 331.635 107.868 329.647C106.77 322.791 106.354 320.212 106.13 319.238H118.152L119.45 336.195ZM119.799 340.588L121.222 358.892H112.511C112.22 357.036 111.92 355.156 111.621 353.276C110.939 348.957 110.256 344.631 109.616 340.588H119.799ZM111.92 358.892H106.221L103.143 340.588H109L111.92 358.892ZM112.611 363.285C113.443 368.784 114.333 374.209 115.107 379.184H109.632L106.953 363.285H112.611ZM139.984 379.184L140.516 363.285H146.34L144.976 379.184H139.984ZM141.448 336.22L142.014 319.263H150.142L148.695 336.22H141.448ZM105.597 319.263C105.83 320.495 106.903 327.167 108.351 336.22H102.427L99.5651 319.263H105.597ZM150.151 379.167H145.608L146.972 363.268H152.039L150.151 379.167ZM155.218 336.178H149.277L150.733 319.222H157.214L155.218 336.178Z" fill="#E0E0E0"/>
<path d="M541.632 387.87C541.632 387.995 433.955 388.086 301.184 388.086C168.413 388.086 60.736 387.995 60.736 387.87C60.736 387.745 168.388 387.654 301.226 387.654C434.063 387.654 541.632 387.754 541.632 387.87Z" fill="#263238"/>
<path d="M329.622 207.9H237.353L244.175 142.172H337.226L329.622 207.9Z" fill="#263238"/>
<path d="M324.929 207.9H232.652L239.475 142.172H332.525L324.929 207.9Z" fill="#455A64"/>
<path d="M321.501 204.922H235.88L242.212 143.936H328.557L321.501 204.922Z" fill="#F5F5F5"/>
<path d="M245.165 194.755C245.041 194.755 245.889 185.561 247.062 174.262C248.236 162.964 249.267 153.795 249.384 153.812C249.5 153.829 248.66 162.964 247.487 174.304C246.314 185.644 245.282 194.763 245.165 194.755Z" fill="#263238"/>
<path d="M260.749 155.85C257.891 156.139 255.012 156.139 252.154 155.85C255.012 155.562 257.891 155.562 260.749 155.85Z" fill="#263238"/>
<path d="M297.324 155.85C297.324 155.967 289.661 156.067 280.201 156.067C270.741 156.067 263.087 155.967 263.087 155.85C263.087 155.734 270.749 155.634 280.201 155.634C289.652 155.634 297.324 155.734 297.324 155.85Z" fill="#FF725E"/>
<path d="M259.742 177.524C256.882 177.812 254 177.812 251.139 177.524C254 177.236 256.882 177.236 259.742 177.524Z" fill="#263238"/>
<path d="M296.308 177.524C296.308 177.649 288.646 177.74 279.194 177.74C269.743 177.74 262.072 177.649 262.072 177.524C262.072 177.399 269.734 177.307 279.194 177.307C288.654 177.307 296.308 177.407 296.308 177.524Z" fill="#FF725E"/>
<path d="M284.644 187.516C284.644 187.633 276.981 187.733 267.53 187.733C258.078 187.733 250.407 187.633 250.407 187.516C250.407 187.4 258.07 187.3 267.53 187.3C276.989 187.3 284.644 187.4 284.644 187.516Z" fill="#FF725E"/>
<path d="M264.576 161.965C262.568 162.19 260.546 162.265 258.527 162.19C256.508 162.265 254.487 162.19 252.479 161.965C254.487 161.752 256.509 161.679 258.527 161.749C260.546 161.679 262.567 161.752 264.576 161.965Z" fill="#FF725E"/>
<path d="M264.235 170.943C262.226 171.157 260.205 171.229 258.186 171.159C256.167 171.229 254.146 171.157 252.138 170.943C254.146 170.724 256.167 170.652 258.186 170.726C260.205 170.652 262.227 170.724 264.235 170.943Z" fill="#FF725E"/>
<path d="M274.46 183.764C272.452 183.978 270.43 184.05 268.411 183.98C266.393 184.05 264.371 183.978 262.363 183.764C264.371 183.545 266.393 183.472 268.411 183.548C270.43 183.473 272.452 183.545 274.46 183.764Z" fill="#FF725E"/>
<path d="M308.531 161.965C308.531 162.09 301.617 162.19 293.089 162.19C284.561 162.19 277.638 162.09 277.638 161.965C277.638 161.841 284.552 161.749 293.089 161.749C301.625 161.749 308.531 161.849 308.531 161.965Z" fill="#263238"/>
<path d="M298.996 171.459C298.996 171.583 292.082 171.675 283.554 171.675C275.026 171.675 268.104 171.583 268.104 171.459C268.104 171.334 275.018 171.242 283.554 171.242C292.09 171.242 298.996 171.342 298.996 171.459Z" fill="#263238"/>
<path d="M309.629 183.764C309.629 183.88 302.715 183.98 294.187 183.98C285.659 183.98 278.72 183.872 278.72 183.764C278.72 183.656 285.634 183.548 294.17 183.548C302.707 183.548 309.629 183.639 309.629 183.764Z" fill="#263238"/>
<path d="M281.424 194.755C281.424 194.871 274.502 194.971 265.974 194.971C257.446 194.971 250.523 194.871 250.523 194.755C250.523 194.638 257.446 194.538 265.974 194.538C274.502 194.538 281.424 194.63 281.424 194.755Z" fill="#263238"/>
<path d="M315.586 194.755C315.586 194.871 308.672 194.971 300.144 194.971C291.616 194.971 284.694 194.871 284.694 194.755C284.694 194.638 291.608 194.538 300.144 194.538C308.68 194.538 315.586 194.63 315.586 194.755Z" fill="#263238"/>
<path d="M281.416 198.324C281.416 198.449 274.502 198.54 265.974 198.54C257.446 198.54 250.523 198.449 250.523 198.324C250.523 198.199 257.437 198.108 265.974 198.108C274.51 198.108 281.416 198.207 281.416 198.324Z" fill="#263238"/>
<path d="M282.922 164.545C282.922 164.661 276.008 164.761 267.48 164.761C258.952 164.761 252.029 164.661 252.029 164.545C252.029 164.428 258.943 164.328 267.48 164.328C276.016 164.328 282.922 164.428 282.922 164.545Z" fill="#263238"/>
<path d="M274.685 162.007C272.039 162.296 269.369 162.296 266.723 162.007C269.368 161.708 272.039 161.708 274.685 162.007Z" fill="#455A64"/>
<path d="M258.752 180.469C256.109 180.758 253.442 180.758 250.798 180.469C253.442 180.181 256.109 180.181 258.752 180.469Z" fill="#455A64"/>
<path d="M258.536 183.764C255.892 184.052 253.225 184.052 250.582 183.764C253.225 183.476 255.892 183.476 258.536 183.764Z" fill="#455A64"/>
<path d="M327.483 150.451C327.483 150.567 308.231 150.667 284.477 150.667C260.724 150.667 241.471 150.567 241.471 150.451C241.471 150.334 260.724 150.226 284.477 150.226C308.231 150.226 327.483 150.326 327.483 150.451Z" fill="#263238"/>
<path d="M248.294 147.539C248.294 147.741 248.233 147.94 248.121 148.108C248.008 148.277 247.848 148.408 247.66 148.485C247.473 148.562 247.266 148.582 247.068 148.542C246.869 148.502 246.687 148.403 246.544 148.259C246.401 148.115 246.304 147.932 246.266 147.733C246.227 147.534 246.249 147.328 246.327 147.141C246.406 146.954 246.539 146.795 246.708 146.684C246.877 146.572 247.076 146.514 247.279 146.515C247.413 146.515 247.545 146.542 247.669 146.593C247.793 146.645 247.905 146.72 247.999 146.816C248.094 146.911 248.168 147.024 248.219 147.148C248.269 147.272 248.295 147.405 248.294 147.539Z" fill="white"/>
<path d="M252.67 147.539C252.67 147.741 252.61 147.94 252.497 148.108C252.384 148.277 252.224 148.408 252.036 148.485C251.849 148.562 251.643 148.582 251.444 148.542C251.245 148.502 251.063 148.403 250.92 148.259C250.777 148.115 250.681 147.932 250.642 147.733C250.603 147.534 250.625 147.328 250.704 147.141C250.782 146.954 250.915 146.795 251.084 146.684C251.254 146.572 251.452 146.514 251.655 146.515C251.789 146.515 251.922 146.542 252.045 146.593C252.169 146.645 252.281 146.72 252.376 146.816C252.47 146.911 252.545 147.024 252.595 147.148C252.646 147.272 252.671 147.405 252.67 147.539Z" fill="white"/>
<path d="M257.088 147.539C257.088 147.741 257.028 147.94 256.915 148.108C256.802 148.277 256.642 148.408 256.454 148.485C256.267 148.562 256.061 148.582 255.862 148.542C255.663 148.502 255.481 148.403 255.338 148.259C255.195 148.115 255.098 147.932 255.06 147.733C255.021 147.534 255.043 147.328 255.122 147.141C255.2 146.954 255.333 146.795 255.502 146.684C255.672 146.572 255.87 146.514 256.073 146.515C256.207 146.515 256.34 146.542 256.463 146.593C256.587 146.645 256.699 146.72 256.794 146.816C256.888 146.911 256.963 147.024 257.013 147.148C257.064 147.272 257.089 147.405 257.088 147.539Z" fill="white"/>
<path d="M450.836 209.897H353.775L360.947 140.75H458.84L450.836 209.897Z" fill="#263238"/>
<path d="M445.894 209.897H348.833L356.013 140.75H453.898L445.894 209.897Z" fill="#455A64"/>
<path d="M442.299 206.76H352.235L358.891 142.605H449.721L442.299 206.76Z" fill="#EBEBEB"/>
<path d="M362.045 195.096C361.928 195.096 362.827 185.428 364.05 173.539C365.273 161.649 366.371 152.015 366.488 152.031C366.604 152.048 365.706 161.691 364.483 173.589C363.259 185.486 362.161 195.104 362.045 195.096Z" fill="#263238"/>
<path d="M378.443 154.178C375.436 154.466 372.407 154.466 369.4 154.178C372.407 153.878 375.436 153.878 378.443 154.178Z" fill="#263238"/>
<path d="M416.915 154.178C416.915 154.294 408.853 154.394 398.902 154.394C388.952 154.394 380.898 154.294 380.898 154.178C380.898 154.062 388.96 153.953 398.902 153.953C408.845 153.953 416.915 154.053 416.915 154.178Z" fill="#FF725E"/>
<path d="M377.379 176.975C374.371 177.263 371.342 177.263 368.335 176.975C371.342 176.686 374.371 176.686 377.379 176.975Z" fill="#263238"/>
<path d="M415.85 176.975C415.85 177.091 407.78 177.191 397.837 177.191C387.895 177.191 379.833 177.091 379.833 176.975C379.833 176.858 387.895 176.758 397.837 176.758C407.78 176.758 415.85 176.858 415.85 176.975Z" fill="#FF725E"/>
<path d="M403.578 187.483C403.578 187.608 395.516 187.699 385.574 187.699C375.631 187.699 367.561 187.608 367.561 187.483C367.561 187.358 375.623 187.267 385.574 187.267C395.524 187.267 403.578 187.366 403.578 187.483Z" fill="#FF725E"/>
<path d="M382.429 160.576C378.193 160.864 373.943 160.864 369.707 160.576C373.943 160.288 378.193 160.288 382.429 160.576Z" fill="#FF725E"/>
<path d="M382.104 170.044C377.869 170.344 373.618 170.344 369.383 170.044C373.619 169.756 377.869 169.756 382.104 170.044Z" fill="#FF725E"/>
<path d="M392.862 183.539C388.627 183.828 384.376 183.828 380.141 183.539C384.376 183.251 388.627 183.251 392.862 183.539Z" fill="#FF725E"/>
<path d="M428.705 160.576C428.705 160.701 421.433 160.792 412.456 160.792C403.478 160.792 396.207 160.701 396.207 160.576C396.207 160.451 403.478 160.36 412.456 160.36C421.433 160.36 428.705 160.493 428.705 160.576Z" fill="#263238"/>
<path d="M418.679 170.56C418.679 170.685 411.399 170.776 402.43 170.776C393.461 170.776 386.181 170.685 386.181 170.56C386.181 170.435 393.453 170.344 402.43 170.344C411.407 170.344 418.679 170.477 418.679 170.56Z" fill="#263238"/>
<path d="M429.861 183.539C429.861 183.656 422.581 183.756 413.612 183.756C404.643 183.756 397.363 183.656 397.363 183.539C397.363 183.423 404.635 183.323 413.612 183.323C422.589 183.323 429.861 183.414 429.861 183.539Z" fill="#263238"/>
<path d="M400.192 195.096C400.192 195.212 392.92 195.312 383.943 195.312C374.966 195.312 367.694 195.212 367.694 195.096C367.694 194.979 374.974 194.879 383.943 194.879C392.912 194.879 400.192 194.979 400.192 195.096Z" fill="#263238"/>
<path d="M436.126 195.096C436.126 195.212 428.846 195.312 419.877 195.312C410.908 195.312 403.628 195.212 403.628 195.096C403.628 194.979 410.9 194.879 419.877 194.879C428.854 194.879 436.126 194.979 436.126 195.096Z" fill="#263238"/>
<path d="M400.192 198.848C400.192 198.965 392.92 199.064 383.943 199.064C374.966 199.064 367.694 198.965 367.694 198.848C367.694 198.732 374.966 198.632 383.943 198.632C392.92 198.632 400.192 198.74 400.192 198.848Z" fill="#263238"/>
<path d="M401.764 163.322C401.764 163.438 394.493 163.538 385.515 163.538C376.538 163.538 369.267 163.438 369.267 163.322C369.267 163.205 376.538 163.105 385.515 163.105C394.493 163.105 401.764 163.205 401.764 163.322Z" fill="#263238"/>
<path d="M393.095 160.643C390.312 160.931 387.508 160.931 384.725 160.643C387.508 160.354 390.312 160.354 393.095 160.643Z" fill="#455A64"/>
<path d="M376.314 180.07C373.531 180.358 370.726 180.358 367.944 180.07C370.726 179.781 373.531 179.781 376.314 180.07Z" fill="#455A64"/>
<path d="M376.114 183.539C373.331 183.828 370.526 183.828 367.744 183.539C370.526 183.251 373.331 183.251 376.114 183.539Z" fill="#455A64"/>
<path d="M448.639 148.487C448.639 148.612 428.388 148.703 403.403 148.703C378.419 148.703 358.168 148.612 358.168 148.487C358.168 148.362 378.419 148.271 403.403 148.271C428.388 148.271 448.639 148.371 448.639 148.487Z" fill="#263238"/>
<path d="M365.339 145.434C365.339 145.646 365.277 145.853 365.159 146.03C365.041 146.206 364.873 146.344 364.677 146.425C364.481 146.506 364.265 146.528 364.057 146.486C363.849 146.445 363.657 146.343 363.507 146.193C363.357 146.042 363.255 145.851 363.214 145.643C363.172 145.435 363.193 145.219 363.275 145.023C363.356 144.827 363.493 144.659 363.67 144.541C363.846 144.423 364.054 144.36 364.266 144.36C364.407 144.359 364.548 144.386 364.678 144.44C364.809 144.493 364.928 144.572 365.028 144.672C365.127 144.772 365.207 144.891 365.26 145.022C365.314 145.152 365.341 145.292 365.339 145.434Z" fill="white"/>
<path d="M369.94 145.434C369.94 145.646 369.878 145.853 369.76 146.03C369.642 146.206 369.474 146.344 369.278 146.425C369.082 146.506 368.866 146.528 368.658 146.486C368.45 146.445 368.258 146.343 368.108 146.193C367.958 146.042 367.856 145.851 367.815 145.643C367.773 145.435 367.794 145.219 367.876 145.023C367.957 144.827 368.094 144.659 368.271 144.541C368.447 144.423 368.655 144.36 368.867 144.36C369.008 144.359 369.148 144.386 369.279 144.44C369.41 144.493 369.529 144.572 369.629 144.672C369.728 144.772 369.807 144.891 369.861 145.022C369.915 145.152 369.942 145.292 369.94 145.434Z" fill="white"/>
<path d="M374.55 145.434C374.55 145.646 374.487 145.853 374.369 146.03C374.251 146.206 374.083 146.344 373.887 146.425C373.691 146.506 373.475 146.528 373.267 146.486C373.059 146.445 372.868 146.343 372.718 146.193C372.567 146.042 372.465 145.851 372.424 145.643C372.382 145.435 372.404 145.219 372.485 145.023C372.566 144.827 372.704 144.659 372.88 144.541C373.057 144.423 373.264 144.36 373.477 144.36C373.618 144.359 373.758 144.386 373.889 144.44C374.019 144.493 374.138 144.572 374.238 144.672C374.338 144.772 374.417 144.891 374.47 145.022C374.524 145.152 374.551 145.292 374.55 145.434Z" fill="white"/>
<path d="M395.458 128.045H302.765L309.62 62.0173H403.096L395.458 128.045Z" fill="#263238"/>
<path d="M390.74 128.045H298.047L304.903 62.0173H398.378L390.74 128.045Z" fill="#455A64"/>
<path d="M387.296 125.058H301.292L307.649 63.7894H394.385L387.296 125.058Z" fill="#FAFAFA"/>
<path d="M310.744 114.816C310.627 114.816 311.484 105.581 312.657 94.2324C313.83 82.8839 314.87 73.6737 314.995 73.6903C315.12 73.707 314.255 82.9172 313.082 94.274C311.908 105.631 310.868 114.816 310.744 114.816Z" fill="#263238"/>
<path d="M326.41 75.7121C323.539 76.0005 320.646 76.0005 317.774 75.7121C320.646 75.4236 323.539 75.4236 326.41 75.7121Z" fill="#263238"/>
<path d="M363.143 75.7121C363.143 75.8285 355.447 75.9284 345.946 75.9284C336.444 75.9284 328.748 75.8285 328.748 75.7121C328.748 75.5956 336.444 75.4957 345.946 75.4957C355.447 75.4957 363.143 75.5706 363.143 75.7121Z" fill="#FF725E"/>
<path d="M325.387 97.4689C322.515 97.7573 319.622 97.7573 316.751 97.4689C319.622 97.1805 322.515 97.1805 325.387 97.4689Z" fill="#263238"/>
<path d="M362.128 97.4689C362.128 97.5854 354.424 97.6852 344.931 97.6852C335.437 97.6852 327.733 97.5854 327.733 97.4689C327.733 97.3524 335.429 97.2526 344.931 97.2526C354.432 97.2526 362.128 97.3441 362.128 97.4689Z" fill="#FF725E"/>
<path d="M350.413 107.503C350.413 107.619 342.709 107.719 333.216 107.719C323.723 107.719 316.019 107.619 316.019 107.503C316.019 107.386 323.715 107.286 333.216 107.286C342.717 107.286 350.413 107.386 350.413 107.503Z" fill="#FF725E"/>
<path d="M330.212 81.8439C326.169 82.1323 322.109 82.1323 318.065 81.8439C322.109 81.5555 326.169 81.5555 330.212 81.8439Z" fill="#FF725E"/>
<path d="M329.905 90.8545C325.861 91.1429 321.801 91.1429 317.757 90.8545C321.801 90.5661 325.861 90.5661 329.905 90.8545Z" fill="#FF725E"/>
<path d="M340.171 103.734C336.128 104.022 332.068 104.022 328.024 103.734C332.068 103.445 336.128 103.445 340.171 103.734Z" fill="#FF725E"/>
<path d="M374.4 81.8439C374.4 81.9604 367.453 82.0602 358.883 82.0602C350.314 82.0602 343.366 81.9604 343.366 81.8439C343.366 81.7274 350.305 81.6276 358.883 81.6276C367.461 81.6276 374.4 81.7191 374.4 81.8439Z" fill="#263238"/>
<path d="M364.824 91.3786C364.824 91.495 357.876 91.5949 349.307 91.5949C340.737 91.5949 333.79 91.495 333.79 91.3786C333.79 91.2621 340.737 91.1622 349.307 91.1622C357.876 91.1622 364.824 91.2538 364.824 91.3786Z" fill="#263238"/>
<path d="M375.507 103.734C375.507 103.85 368.559 103.95 359.99 103.95C351.42 103.95 344.473 103.85 344.473 103.734C344.473 103.617 351.42 103.517 359.99 103.517C368.559 103.517 375.507 103.609 375.507 103.734Z" fill="#263238"/>
<path d="M347.169 114.816C347.169 114.933 340.221 115.032 331.652 115.032C323.082 115.032 316.16 114.891 316.16 114.816C316.16 114.741 323.107 114.6 331.677 114.6C340.246 114.6 347.169 114.65 347.169 114.816Z" fill="#263238"/>
<path d="M381.489 114.816C381.489 114.933 374.541 115.032 365.972 115.032C357.402 115.032 350.455 114.933 350.455 114.816C350.455 114.7 357.402 114.6 365.972 114.6C374.541 114.6 381.489 114.65 381.489 114.816Z" fill="#263238"/>
<path d="M347.169 118.36C347.169 118.485 340.221 118.577 331.652 118.577C323.082 118.577 316.135 118.485 316.135 118.36C316.135 118.236 323.082 118.144 331.652 118.144C340.221 118.144 347.169 118.244 347.169 118.36Z" fill="#263238"/>
<path d="M348.674 84.4314C348.674 84.5479 341.727 84.6477 333.158 84.6477C324.588 84.6477 317.641 84.5479 317.641 84.4314C317.641 84.3149 324.588 84.2151 333.158 84.2151C341.727 84.2151 348.674 84.3066 348.674 84.4314Z" fill="#263238"/>
<path d="M340.404 81.8772C337.747 82.1656 335.066 82.1656 332.409 81.8772C335.066 81.5888 337.747 81.5888 340.404 81.8772Z" fill="#455A64"/>
<path d="M324.372 100.422C321.714 100.711 319.034 100.711 316.376 100.422C319.034 100.134 321.714 100.134 324.372 100.422Z" fill="#455A64"/>
<path d="M324.189 103.734C321.531 104.022 318.851 104.022 316.193 103.734C318.851 103.445 321.531 103.445 324.189 103.734Z" fill="#455A64"/>
<path d="M393.436 70.2625C393.436 70.3873 374.1 70.4871 350.247 70.4871C326.394 70.4871 307.008 70.3873 307.008 70.2625C307.008 70.1377 326.344 70.0461 350.214 70.0461C374.084 70.0461 393.436 70.146 393.436 70.2625Z" fill="#263238"/>
<path d="M312.874 68.3654C313.439 68.3654 313.897 67.9073 313.897 67.3421C313.897 66.7769 313.439 66.3187 312.874 66.3187C312.308 66.3187 311.85 66.7769 311.85 67.3421C311.85 67.9073 312.308 68.3654 312.874 68.3654Z" fill="white"/>
<path d="M317.267 68.3654C317.832 68.3654 318.29 67.9073 318.29 67.3421C318.29 66.7769 317.832 66.3187 317.267 66.3187C316.701 66.3187 316.243 66.7769 316.243 67.3421C316.243 67.9073 316.701 68.3654 317.267 68.3654Z" fill="white"/>
<path d="M321.66 68.3654C322.225 68.3654 322.683 67.9073 322.683 67.3421C322.683 66.7769 322.225 66.3187 321.66 66.3187C321.094 66.3187 320.636 66.7769 320.636 67.3421C320.636 67.9073 321.094 68.3654 321.66 68.3654Z" fill="white"/>
<path d="M238.435 377.47H231.213V387.321H238.435V377.47Z" fill="#263238"/>
<path d="M277.148 262.521H341.22V259.401H277.148V262.521Z" fill="#263238"/>
<path d="M351.146 262.521L363.168 217.485H313.132L302.249 262.521H351.146Z" fill="#263238"/>
<path d="M305.252 259.118H349.948L360.348 219.565H315.419L305.252 259.118Z" fill="#F5F5F5"/>
<path d="M316.534 227.227L313.764 238.426H343.4L346.561 227.227H316.534Z" fill="#E0E0E0"/>
<path d="M340.288 225.747C340.288 225.871 335.096 225.963 328.682 225.963C322.267 225.963 317.075 225.871 317.075 225.747C317.075 225.622 322.267 225.53 328.682 225.53C335.096 225.53 340.288 225.63 340.288 225.747Z" fill="#455A64"/>
<path d="M326.801 229.366C323.688 229.654 320.555 229.654 317.441 229.366C320.555 229.077 323.688 229.077 326.801 229.366Z" fill="#263238"/>
<path d="M334.306 229.191C332.286 229.479 330.236 229.479 328.216 229.191C330.236 228.902 332.286 228.902 334.306 229.191Z" fill="#263238"/>
<path d="M342.784 231.396C342.784 231.521 337.052 231.62 329.98 231.62C322.908 231.62 317.175 231.521 317.175 231.396C317.175 231.271 322.908 231.179 329.98 231.179C337.052 231.179 342.784 231.296 342.784 231.396Z" fill="#455A64"/>
<path d="M324.946 233.251C322.18 233.541 319.392 233.541 316.626 233.251C319.392 232.961 322.18 232.961 324.946 233.251Z" fill="#FF725E"/>
<path d="M340.488 235.905C340.488 236.022 335.171 236.122 328.615 236.122C322.059 236.122 316.734 236.022 316.734 235.905C316.734 235.789 322.051 235.689 328.615 235.689C335.179 235.689 340.488 235.78 340.488 235.905Z" fill="#455A64"/>
<path d="M323.007 241.638C319.963 241.924 316.899 241.924 313.855 241.638C316.899 241.351 319.963 241.351 323.007 241.638Z" fill="#455A64"/>
<path d="M330.861 241.679C329.829 241.881 328.774 241.945 327.725 241.871C326.675 241.935 325.622 241.851 324.596 241.621C325.629 241.42 326.684 241.355 327.733 241.43C328.782 241.366 329.836 241.45 330.861 241.679Z" fill="#263238"/>
<path d="M335.296 241.463C335.296 241.588 334.697 241.679 333.965 241.679C333.233 241.679 332.642 241.588 332.642 241.463C332.642 241.338 333.241 241.247 333.965 241.247C334.689 241.247 335.296 241.347 335.296 241.463Z" fill="#263238"/>
<path d="M316.917 243.934C316.917 244.059 316.26 244.15 315.453 244.15C314.646 244.15 313.997 244.059 313.997 243.934C313.997 243.809 314.654 243.718 315.453 243.718C316.252 243.718 316.917 243.818 316.917 243.934Z" fill="#FF725E"/>
<path d="M325.653 243.934C323.338 244.223 320.996 244.223 318.681 243.934C320.996 243.646 323.338 243.646 325.653 243.934Z" fill="#263238"/>
<path d="M346.486 243.668C346.486 243.793 342.326 243.884 337.176 243.884C332.026 243.884 327.858 243.793 327.858 243.668C327.858 243.543 332.018 243.451 337.176 243.451C342.335 243.451 346.486 243.551 346.486 243.668Z" fill="#455A64"/>
<path d="M316.468 246.322C316.468 246.438 315.802 246.538 314.97 246.538C314.138 246.538 313.473 246.438 313.473 246.322C313.473 246.205 314.138 246.106 314.97 246.106C315.802 246.106 316.468 246.197 316.468 246.322Z" fill="#263238"/>
<path d="M321.06 246.272C320.484 246.486 319.865 246.561 319.255 246.488C318.642 246.56 318.02 246.486 317.441 246.272C318.022 246.063 318.642 245.989 319.255 246.056C319.865 245.988 320.483 246.062 321.06 246.272Z" fill="#263238"/>
<path d="M334.747 246.056C330.839 246.344 326.915 246.344 323.007 246.056C326.915 245.767 330.839 245.767 334.747 246.056Z" fill="#455A64"/>
<path d="M327.508 250.207C325.147 250.421 322.774 250.494 320.403 250.424C318.033 250.494 315.66 250.422 313.298 250.207C315.66 249.988 318.033 249.916 320.403 249.991C322.774 249.916 325.147 249.988 327.508 250.207Z" fill="#455A64"/>
<path d="M335.803 250.024C333.667 250.313 331.501 250.313 329.364 250.024C331.501 249.736 333.667 249.736 335.803 250.024Z" fill="#FF725E"/>
<path d="M348.125 250.024C344.57 250.313 340.998 250.313 337.443 250.024C340.998 249.736 344.57 249.736 348.125 250.024Z" fill="#263238"/>
<path d="M345.28 225.572C345.28 225.697 344.781 225.788 344.173 225.788C343.566 225.788 343.067 225.697 343.067 225.572C343.067 225.447 343.566 225.355 344.173 225.355C344.781 225.355 345.28 225.472 345.28 225.572Z" fill="#263238"/>
<path d="M322.741 224.074C321.134 224.363 319.489 224.363 317.882 224.074C319.489 223.786 321.134 223.786 322.741 224.074Z" fill="#FF725E"/>
<path d="M359.599 222.41H314.671L315.428 219.565H360.356L359.599 222.41Z" fill="#EBEBEB"/>
<path d="M317.316 221.495C317.588 221.495 317.807 221.275 317.807 221.004C317.807 220.733 317.588 220.513 317.316 220.513C317.045 220.513 316.826 220.733 316.826 221.004C316.826 221.275 317.045 221.495 317.316 221.495Z" fill="#FAFAFA"/>
<path d="M319.005 221.495C319.277 221.495 319.496 221.275 319.496 221.004C319.496 220.733 319.277 220.513 319.005 220.513C318.734 220.513 318.515 220.733 318.515 221.004C318.515 221.275 318.734 221.495 319.005 221.495Z" fill="#FAFAFA"/>
<path d="M320.694 221.495C320.966 221.495 321.185 221.275 321.185 221.004C321.185 220.733 320.966 220.513 320.694 220.513C320.423 220.513 320.203 220.733 320.203 221.004C320.203 221.275 320.423 221.495 320.694 221.495Z" fill="#FAFAFA"/>
<path d="M414.353 266.714H307.823V328.873H414.353V266.714Z" fill="#263238"/>
<path d="M356.354 266.714H307.823V328.873H356.354V266.714Z" fill="#455A64"/>
<path d="M351.412 287.822C351.399 287.717 351.399 287.611 351.412 287.506V286.599C351.412 285.767 351.412 284.627 351.37 283.146C351.37 280.143 351.32 275.85 351.287 270.558L351.445 270.716L312.408 270.774L312.624 270.558V275.043C312.624 276.523 312.624 277.996 312.624 279.435C312.624 282.323 312.624 285.126 312.624 287.805L312.424 287.606L340.388 287.697L348.508 287.755H350.688H351.262H351.462H351.287H350.738H348.6L340.521 287.805L312.424 287.905H312.216V287.697C312.216 285.018 312.216 282.214 312.216 279.327V270.575L312.433 270.358L351.47 270.417H351.628V270.575C351.587 275.908 351.562 280.234 351.537 283.254C351.537 284.719 351.537 285.867 351.537 286.674V287.556C351.42 287.731 351.412 287.872 351.412 287.822Z" fill="#263238"/>
<path d="M333.549 279.194C333.44 278.722 333.177 278.3 332.8 277.996C332.598 277.855 332.364 277.765 332.119 277.734C331.874 277.704 331.625 277.734 331.394 277.821C331.116 277.928 330.877 278.117 330.708 278.362C330.539 278.606 330.447 278.897 330.445 279.194C330.45 279.491 330.542 279.78 330.711 280.025C330.88 280.269 331.117 280.458 331.394 280.567C331.626 280.651 331.875 280.679 332.119 280.647C332.364 280.615 332.597 280.525 332.8 280.384C333.174 280.077 333.437 279.656 333.549 279.186C333.549 279.186 333.624 279.336 333.549 279.61C333.482 280.009 333.272 280.37 332.958 280.625C332.72 280.82 332.436 280.95 332.133 281.004C331.83 281.058 331.518 281.033 331.227 280.933C330.863 280.808 330.547 280.573 330.324 280.259C330.1 279.946 329.979 279.571 329.979 279.186C329.979 278.801 330.1 278.426 330.324 278.112C330.547 277.799 330.863 277.564 331.227 277.439C331.518 277.337 331.829 277.311 332.132 277.364C332.434 277.416 332.719 277.545 332.958 277.738C333.272 277.994 333.482 278.354 333.549 278.753C333.632 279.044 333.574 279.194 333.549 279.194Z" fill="#263238"/>
<path d="M351.412 306.833C351.4 306.725 351.4 306.617 351.412 306.509V305.602C351.412 304.77 351.412 303.63 351.37 302.149C351.37 299.154 351.32 294.861 351.287 289.561L351.445 289.719L312.408 289.786L312.624 289.569V294.054C312.624 295.543 312.624 297.007 312.624 298.455C312.624 301.342 312.624 304.146 312.624 306.825L312.424 306.617L340.388 306.717L348.508 306.775H350.688H351.262H351.462H351.287H350.738H348.6L340.521 306.833L312.424 306.933H312.216V306.725C312.216 304.046 312.216 301.242 312.216 298.355V289.578C312.166 289.578 312.624 289.162 312.433 289.353L351.47 289.419H351.628V289.536C351.587 294.877 351.562 299.204 351.537 302.224C351.537 303.688 351.537 304.828 351.537 305.643V306.517C351.42 306.742 351.412 306.842 351.412 306.833Z" fill="#263238"/>
<path d="M333.549 298.197C333.432 297.736 333.169 297.324 332.8 297.024C332.578 296.866 332.317 296.771 332.046 296.751C331.774 296.731 331.502 296.785 331.259 296.909C331.016 297.032 330.812 297.22 330.669 297.452C330.525 297.683 330.448 297.95 330.445 298.222C330.447 298.52 330.539 298.81 330.708 299.055C330.877 299.3 331.116 299.488 331.394 299.595C331.625 299.683 331.874 299.713 332.119 299.682C332.364 299.652 332.598 299.562 332.8 299.42C333.175 299.115 333.439 298.693 333.549 298.222C333.549 298.222 333.624 298.372 333.549 298.646C333.482 299.045 333.272 299.406 332.958 299.661C332.72 299.856 332.436 299.986 332.133 300.04C331.83 300.094 331.518 300.07 331.227 299.969C330.863 299.844 330.547 299.609 330.324 299.296C330.1 298.982 329.979 298.607 329.979 298.222C329.979 297.837 330.1 297.462 330.324 297.149C330.547 296.835 330.863 296.6 331.227 296.475C331.518 296.375 331.83 296.35 332.133 296.404C332.436 296.458 332.72 296.588 332.958 296.783C333.272 297.038 333.482 297.399 333.549 297.798C333.632 298.047 333.574 298.197 333.549 298.197Z" fill="#263238"/>
<path d="M351.412 325.836C351.399 325.731 351.399 325.625 351.412 325.52V324.613C351.412 323.781 351.412 322.641 351.37 321.16C351.37 318.157 351.32 313.864 351.287 308.572L351.445 308.73L312.408 308.788L312.624 308.572V313.057C312.624 314.538 312.624 316.01 312.624 317.45C312.624 320.337 312.624 323.14 312.624 325.819L312.424 325.62L340.388 325.711L348.508 325.77H350.688H351.262H351.462H351.287H350.738H348.6L340.521 325.819L312.424 325.919H312.216V325.711C312.216 323.032 312.216 320.228 312.216 317.341V308.589L312.433 308.372L351.47 308.431H351.628V308.589C351.587 313.922 351.562 318.248 351.537 321.268C351.537 322.733 351.537 323.881 351.537 324.688V325.57C351.42 325.745 351.412 325.844 351.412 325.836Z" fill="#263238"/>
<path d="M333.549 317.208C333.44 316.736 333.177 316.314 332.8 316.01C332.598 315.869 332.364 315.779 332.119 315.748C331.874 315.718 331.625 315.748 331.394 315.835C331.116 315.942 330.877 316.131 330.708 316.376C330.539 316.62 330.447 316.911 330.445 317.208C330.448 317.481 330.525 317.747 330.669 317.979C330.812 318.21 331.016 318.398 331.259 318.522C331.502 318.645 331.774 318.7 332.046 318.679C332.317 318.659 332.578 318.565 332.8 318.406C333.174 318.1 333.437 317.679 333.549 317.208C333.549 317.208 333.624 317.358 333.549 317.633C333.482 318.031 333.272 318.392 332.958 318.648C332.72 318.842 332.436 318.972 332.133 319.026C331.83 319.08 331.518 319.056 331.227 318.955C330.863 318.831 330.547 318.595 330.324 318.282C330.1 317.969 329.979 317.593 329.979 317.208C329.979 316.823 330.1 316.448 330.324 316.135C330.547 315.821 330.863 315.586 331.227 315.461C331.518 315.36 331.829 315.334 332.132 315.386C332.434 315.439 332.719 315.567 332.958 315.761C333.272 316.016 333.482 316.377 333.549 316.776C333.632 317.058 333.574 317.208 333.549 317.208Z" fill="#263238"/>
<path d="M236.879 379.467L165.684 379.409V266.714H236.879V379.467Z" fill="#263238"/>
<path d="M418.221 262.38H162.248V268.287H418.221V262.38Z" fill="#263238"/>
<path d="M173.622 268.287H165.684V387.845H173.622V268.287Z" fill="#263238"/>
<path d="M414.353 268.287H406.415V387.878H414.353V268.287Z" fill="#263238"/>
<path d="M364.291 268.287H356.354V387.878H364.291V268.287Z" fill="#263238"/>
<path d="M198.241 262.38C198.241 262.496 190.611 262.596 181.201 262.596C171.791 262.596 164.162 262.496 164.162 262.38C164.162 262.263 171.791 262.163 181.201 262.163C190.611 262.163 198.241 262.255 198.241 262.38Z" fill="#455A64"/>
<path d="M273.087 382.021L273.287 373.476L257.271 372.994L256.847 385.474L257.837 385.565C262.246 385.948 280.301 387.18 283.271 386.397C286.599 385.499 273.087 382.021 273.087 382.021Z" fill="#FF725E"/>
<g opacity="0.4">
<path opacity="0.4" d="M279.677 383.96C279.677 383.96 284.411 385.474 283.787 386.248C283.163 387.021 264.884 386.447 256.847 385.499V385.141L278.171 385.973C278.171 385.973 278.72 383.968 279.677 383.96Z" fill="white"/>
</g>
<path d="M256.63 385.125H256.905L257.737 385.199L260.641 385.416C263.095 385.582 266.465 385.757 270.242 385.882C274.019 386.006 277.397 386.031 279.86 386.023H282.772H283.604H283.878H283.604H282.772H279.86C277.405 386.023 274.036 385.94 270.25 385.823C266.465 385.707 263.103 385.549 260.649 385.416L257.737 385.266H256.905L256.63 385.125Z" fill="#263238"/>
<path d="M278.187 386.223C278.33 385.744 278.528 385.283 278.778 384.85C279.08 384.454 279.423 384.091 279.802 383.768C279.316 383.967 278.902 384.307 278.614 384.745C278.326 385.183 278.177 385.698 278.187 386.223Z" fill="#263238"/>
<path d="M273.537 383.685C273.578 383.685 273.82 383.444 274.061 383.086C274.302 382.728 274.469 382.404 274.427 382.379C274.385 382.354 274.144 382.612 273.903 382.978C273.661 383.344 273.495 383.652 273.537 383.685Z" fill="#263238"/>
<path d="M272.264 382.961C272.264 382.961 272.555 382.837 272.838 382.595C273.121 382.354 273.32 382.129 273.287 382.088C273.254 382.046 272.996 382.212 272.713 382.454C272.43 382.695 272.23 382.92 272.264 382.961Z" fill="#263238"/>
<path d="M271.49 381.422C271.755 381.524 272.038 381.569 272.322 381.555C272.601 381.598 272.885 381.575 273.154 381.489C272.889 381.388 272.605 381.343 272.322 381.356C271.864 381.339 271.49 381.364 271.49 381.422Z" fill="#263238"/>
<path d="M271.232 380.349C271.504 380.536 271.825 380.64 272.156 380.648C272.48 380.712 272.816 380.677 273.121 380.548C272.809 380.484 272.491 380.454 272.172 380.457C271.864 380.386 271.548 380.35 271.232 380.349Z" fill="#263238"/>
<path d="M274.127 382.304C274.466 382.362 274.812 382.362 275.151 382.304C275.525 382.267 275.895 382.197 276.257 382.096C276.476 382.038 276.688 381.958 276.89 381.855C277.014 381.79 277.11 381.68 277.156 381.547C277.176 381.471 277.173 381.392 277.147 381.318C277.122 381.244 277.076 381.179 277.014 381.131C276.627 380.926 276.182 380.861 275.753 380.948C275.323 381.034 274.937 381.267 274.66 381.605C274.496 381.806 274.374 382.038 274.302 382.287C274.284 382.378 274.284 382.471 274.302 382.562C274.421 382.259 274.59 381.978 274.801 381.73C275.039 381.467 275.348 381.279 275.692 381.189C276.102 381.068 276.543 381.11 276.923 381.306C277.081 381.43 277.006 381.622 276.823 381.73C276.636 381.822 276.441 381.897 276.241 381.955C275.889 382.063 275.531 382.147 275.167 382.204C274.56 382.279 274.127 382.271 274.127 382.304Z" fill="#263238"/>
<path d="M274.385 382.362C274.518 382.152 274.568 381.9 274.527 381.655C274.505 381.383 274.416 381.12 274.269 380.89C274.188 380.735 274.069 380.604 273.924 380.508C273.778 380.412 273.611 380.354 273.437 380.34C273.331 380.359 273.237 380.418 273.175 380.505C273.113 380.592 273.087 380.701 273.104 380.806C273.125 380.972 273.182 381.131 273.27 381.272C273.396 381.504 273.552 381.716 273.736 381.905C273.891 382.094 274.088 382.245 274.31 382.346C274.31 382.346 274.111 382.154 273.836 381.813C273.679 381.62 273.542 381.411 273.428 381.189C273.295 380.964 273.204 380.573 273.47 380.532C273.736 380.49 273.978 380.781 274.127 380.989C274.269 381.193 274.362 381.427 274.402 381.672C274.42 381.902 274.415 382.133 274.385 382.362Z" fill="#263238"/>
<path d="M257.088 380.748C257.088 380.79 257.554 380.748 258.269 380.831C259.211 380.96 260.097 381.355 260.822 381.969C261.547 382.584 262.082 383.393 262.363 384.301C262.471 384.682 262.56 385.068 262.629 385.457C262.65 385.35 262.65 385.24 262.629 385.133C262.601 384.852 262.551 384.574 262.479 384.301C262.222 383.35 261.681 382.499 260.929 381.862C260.178 381.224 259.25 380.83 258.269 380.731C257.976 380.702 257.681 380.702 257.388 380.731C257.287 380.725 257.187 380.73 257.088 380.748Z" fill="#263238"/>
<path d="M258.952 374.134C258.811 375.224 258.731 376.321 258.71 377.42C258.634 378.528 258.62 379.639 258.669 380.748C258.809 379.658 258.89 378.561 258.91 377.462C258.992 376.354 259.006 375.243 258.952 374.134Z" fill="#263238"/>
<path d="M264.717 384.043C265.477 384.247 266.26 384.351 267.047 384.351C267.831 384.411 268.619 384.372 269.393 384.234C269.393 384.176 268.345 384.234 267.055 384.159C265.766 384.084 264.726 383.993 264.717 384.043Z" fill="#263238"/>
<path d="M261.581 383.943C261.581 383.943 261.656 384.168 261.756 384.409C261.855 384.65 261.905 384.875 261.964 384.866C262.022 384.858 262.055 384.617 261.964 384.342C261.872 384.068 261.614 383.91 261.581 383.943Z" fill="#263238"/>
<path d="M260.416 382.437C260.416 382.437 260.474 382.645 260.632 382.82C260.79 382.995 260.957 383.103 260.998 383.061C261.04 383.02 260.94 382.861 260.774 382.687C260.607 382.512 260.483 382.404 260.416 382.437Z" fill="#263238"/>
<path d="M258.752 381.713C258.752 381.771 258.977 381.771 259.21 381.863C259.443 381.955 259.609 382.079 259.651 382.046C259.692 382.013 259.567 381.788 259.276 381.68C258.985 381.572 258.752 381.663 258.752 381.713Z" fill="#263238"/>
<path d="M257.571 381.356C257.571 381.405 257.645 381.489 257.77 381.547C257.895 381.605 258.028 381.605 258.045 381.547C258.061 381.489 257.978 381.405 257.845 381.356C257.712 381.306 257.596 381.306 257.571 381.356Z" fill="#263238"/>
<g opacity="0.3">
<path opacity="0.3" d="M257.121 380.324L273.129 380.548L273.162 378.618L257.03 379.3L257.121 380.324Z" fill="black"/>
</g>
<path d="M298.347 383.352V374.799L282.323 374.741L282.231 387.221L283.221 387.288C287.639 387.546 305.685 388.303 308.672 387.421C311.95 386.464 298.347 383.352 298.347 383.352Z" fill="#FF725E"/>
<g opacity="0.4">
<path opacity="0.4" d="M304.986 385.108C304.986 385.108 309.754 386.506 309.146 387.288C308.539 388.07 290.26 387.995 282.198 387.288V386.93L303.53 387.204C303.53 387.204 304.054 385.149 304.986 385.108Z" fill="white"/>
</g>
<path d="M281.981 386.88H282.256L283.046 386.93L285.958 387.071C288.413 387.171 291.782 387.263 295.568 387.279C299.354 387.296 302.723 387.279 305.186 387.171L308.098 387.063L308.888 387.013H309.163H308.098L305.186 387.055C302.69 387.055 299.32 387.13 295.568 387.113C291.816 387.096 288.421 387.021 285.958 386.963L283.046 386.88H281.981Z" fill="#263238"/>
<path d="M303.564 387.421C303.688 386.937 303.873 386.47 304.113 386.031C304.401 385.622 304.736 385.248 305.111 384.917C304.61 385.099 304.195 385.46 303.946 385.932C303.636 386.362 303.5 386.894 303.564 387.421Z" fill="#263238"/>
<path d="M298.846 385C298.888 385 299.112 384.75 299.354 384.384C299.595 384.018 299.736 383.702 299.695 383.669C299.653 383.635 299.42 383.918 299.187 384.284C298.954 384.65 298.796 384.966 298.846 385Z" fill="#263238"/>
<path d="M297.548 384.309C297.548 384.309 297.839 384.176 298.114 383.935C298.389 383.693 298.588 383.452 298.555 383.411C298.522 383.369 298.264 383.544 297.989 383.785C297.715 384.026 297.515 384.268 297.548 384.309Z" fill="#263238"/>
<path d="M296.733 382.795C296.999 382.889 297.283 382.926 297.565 382.903C297.845 382.937 298.129 382.909 298.397 382.82C298.397 382.762 298.031 382.712 297.565 382.712C297.099 382.712 296.733 382.72 296.733 382.795Z" fill="#263238"/>
<path d="M296.458 381.722C296.735 381.904 297.059 381.999 297.39 381.996C297.717 382.061 298.056 382.017 298.355 381.871C298.041 381.823 297.724 381.801 297.407 381.805C297.094 381.749 296.776 381.721 296.458 381.722Z" fill="#263238"/>
<path d="M299.395 383.602C299.733 383.666 300.08 383.666 300.419 383.602C300.792 383.561 301.16 383.48 301.517 383.361C301.737 383.304 301.949 383.22 302.149 383.111C302.273 383.039 302.364 382.923 302.407 382.787C302.422 382.711 302.415 382.632 302.387 382.56C302.359 382.488 302.311 382.425 302.249 382.379C301.857 382.184 301.41 382.132 300.983 382.23C300.557 382.329 300.178 382.573 299.911 382.92C299.756 383.124 299.64 383.355 299.57 383.602C299.548 383.695 299.548 383.792 299.57 383.885C299.681 383.583 299.841 383.302 300.044 383.053C300.278 382.782 300.584 382.583 300.926 382.479C301.33 382.346 301.77 382.379 302.149 382.57C302.316 382.695 302.249 382.886 302.066 382.995C301.884 383.095 301.691 383.176 301.492 383.236C301.144 383.352 300.788 383.444 300.427 383.51C299.786 383.552 299.395 383.552 299.395 383.602Z" fill="#263238"/>
<path d="M299.661 383.66C299.782 383.442 299.823 383.189 299.778 382.945C299.75 382.674 299.656 382.414 299.503 382.187C299.418 382.039 299.298 381.913 299.153 381.822C299.008 381.73 298.842 381.676 298.671 381.663C298.619 381.673 298.57 381.693 298.525 381.723C298.481 381.752 298.443 381.79 298.414 381.834C298.384 381.878 298.364 381.928 298.354 381.98C298.344 382.032 298.344 382.086 298.355 382.138C298.379 382.301 298.439 382.457 298.53 382.595C298.663 382.823 298.825 383.033 299.012 383.219C299.329 383.535 299.587 383.66 299.595 383.635C299.603 383.61 299.395 383.452 299.112 383.128C298.949 382.934 298.804 382.725 298.68 382.504C298.538 382.287 298.447 381.896 298.68 381.855C298.913 381.813 299.196 382.088 299.354 382.287C299.5 382.487 299.599 382.718 299.645 382.961C299.67 383.193 299.676 383.427 299.661 383.66Z" fill="#263238"/>
<path d="M282.323 382.504C282.323 382.504 282.78 382.462 283.504 382.554C284.447 382.663 285.341 383.035 286.083 383.627C286.82 384.226 287.376 385.018 287.689 385.915C287.93 386.597 287.955 387.063 287.988 387.055C288.005 386.947 288.005 386.838 287.988 386.73C287.958 386.449 287.902 386.17 287.822 385.898C287.538 384.955 286.975 384.119 286.207 383.502C285.44 382.884 284.503 382.513 283.521 382.437C283.227 382.41 282.932 382.41 282.639 382.437C282.431 382.462 282.323 382.487 282.323 382.504Z" fill="#263238"/>
<path d="M284.012 375.839C283.895 376.945 283.845 378.056 283.862 379.167C283.805 380.276 283.819 381.388 283.903 382.495C284.014 381.39 284.064 380.279 284.053 379.167C284.109 378.058 284.095 376.947 284.012 375.839Z" fill="#263238"/>
<path d="M290.035 385.599C290.801 385.78 291.587 385.861 292.373 385.84C293.16 385.88 293.948 385.818 294.719 385.657C294.719 385.607 293.663 385.657 292.373 385.657C291.084 385.657 290.044 385.54 290.035 385.599Z" fill="#263238"/>
<path d="M286.89 385.574C286.89 385.615 286.982 385.798 287.082 386.04C287.181 386.281 287.248 386.497 287.306 386.489C287.365 386.481 287.389 386.239 287.265 385.965C287.14 385.69 286.932 385.541 286.89 385.574Z" fill="#263238"/>
<path d="M285.717 384.101C285.676 384.101 285.784 384.301 285.95 384.475C286.116 384.65 286.275 384.75 286.316 384.708C286.358 384.667 286.25 384.509 286.083 384.334C285.917 384.159 285.759 384.059 285.717 384.101Z" fill="#263238"/>
<path d="M284.028 383.419C284.028 383.477 284.253 383.477 284.486 383.56C284.719 383.643 284.893 383.768 284.935 383.735C284.977 383.702 284.844 383.477 284.552 383.377C284.261 383.277 284.012 383.369 284.028 383.419Z" fill="#263238"/>
<path d="M282.822 383.094C282.822 383.144 282.897 383.228 283.03 383.286C283.163 383.344 283.288 383.336 283.304 383.286C283.321 383.236 283.229 383.153 283.096 383.103C282.963 383.053 282.88 383.045 282.822 383.094Z" fill="#263238"/>
<g opacity="0.3">
<path opacity="0.3" d="M282.348 382.071L298.355 381.88L298.339 379.949L282.223 381.056L282.348 382.071Z" fill="black"/>
</g>
<path d="M262.97 236.945L269.385 256.256C271.116 261.473 275.675 262.371 281.174 262.371H316.859V254.359L284.261 249.708L276.49 229.857L262.97 236.945Z" fill="#FFBE9D"/>
<path d="M320.786 252.703L323.615 251.364C323.615 251.364 326.668 245.465 327.367 245.706C328.066 245.947 328.274 247.678 327.051 250.382L330.812 249.309C330.812 249.309 338.965 253.078 338.607 253.585C338.25 254.093 337.576 255.299 335.804 254.417C334.031 253.535 331.693 252.437 331.693 252.437L327.3 253.693L332.966 254.417L338.3 259.259C338.3 259.259 336.544 260.574 335.038 259.185L321.194 262.155L316.859 262.404V254.392L320.786 252.703Z" fill="#FFBE9D"/>
<path d="M335.038 259.16C334.98 259.16 334.722 258.785 334.206 258.244C333.912 257.934 333.573 257.671 333.199 257.462C332.73 257.238 332.221 257.105 331.702 257.071C330.295 256.976 328.901 256.739 327.542 256.364C328.951 256.316 330.361 256.411 331.752 256.647C332.334 256.683 332.902 256.844 333.416 257.121C333.816 257.363 334.168 257.676 334.456 258.045C334.745 258.358 334.946 258.743 335.038 259.16Z" fill="#EB996E"/>
<path d="M332.875 259.709C332.817 259.709 332.775 259.426 332.392 259.343C332.01 259.259 331.361 259.193 330.728 259.126C329.913 259.113 329.101 259.033 328.299 258.885C329.1 258.605 329.96 258.54 330.795 258.694C331.386 258.745 331.97 258.865 332.534 259.051C332.632 259.088 332.721 259.147 332.793 259.223C332.866 259.3 332.919 259.392 332.95 259.492C332.95 259.642 332.9 259.717 332.875 259.709Z" fill="#EB996E"/>
<path d="M232.844 157.514L230.905 196.768L247.711 198.349L248.643 188.864C248.643 188.864 254.567 190.328 256.364 184.845C257.521 181.343 258.544 153.903 258.544 153.903L232.844 157.514Z" fill="#FFBE9D"/>
<path d="M259.992 158.446C260.458 162.123 255.324 164.27 255.324 164.27L254.426 172.964C253.622 172.907 252.816 172.907 252.013 172.964C252.445 168.888 247.187 169.686 246.655 172.465C246.122 175.244 249.151 176.925 249.151 176.925C247.054 180.145 246.197 181.85 243.219 184.87C239.99 188.14 238.227 188.406 234.899 188.307L231.229 188.14C231.229 188.14 229.915 185.003 228.958 177.59C228.5 174.029 225.713 169.354 226.512 163.563C228.758 147.098 244.533 148.836 244.533 148.836C252.778 149.011 258.91 149.926 259.992 158.446Z" fill="#263238"/>
<path d="M247.936 149.261C251.497 149.352 255.191 149.635 258.319 151.341C261.448 153.046 263.86 156.566 263.22 160.068L261.439 160.393L260.707 159.078C260.707 159.777 260.707 160.476 260.707 161.175L257.579 162.049C257.108 159.378 256.167 156.811 254.8 154.469" fill="#263238"/>
<path d="M233.509 167.324C233.385 167.134 233.293 166.926 233.235 166.708C233.033 166.126 232.883 165.527 232.785 164.919C232.447 162.899 232.588 160.829 233.196 158.874C233.805 156.918 234.864 155.133 236.288 153.662C236.708 153.214 237.167 152.804 237.661 152.439C237.834 152.288 238.03 152.167 238.243 152.081C238.285 152.14 237.519 152.714 236.513 153.862C235.205 155.357 234.222 157.108 233.626 159.004C233.053 160.906 232.878 162.905 233.11 164.877C233.268 166.4 233.584 167.299 233.509 167.324Z" fill="#455A64"/>
<path d="M236.82 165.951C236.498 165.318 236.276 164.638 236.163 163.937C235.794 162.261 235.684 160.538 235.839 158.829C235.983 157.114 236.387 155.431 237.037 153.837C237.271 153.163 237.611 152.532 238.043 151.965C237.148 154.169 236.552 156.483 236.271 158.845C236.137 161.228 236.321 163.617 236.82 165.951Z" fill="#455A64"/>
<path d="M258.278 159.86C258.195 159.86 258.053 158.845 257.371 157.364C256.495 155.412 255.09 153.743 253.315 152.546C251.541 151.35 249.467 150.673 247.329 150.592C245.665 150.517 244.675 150.767 244.658 150.692C244.877 150.581 245.113 150.508 245.357 150.476C246.009 150.346 246.672 150.285 247.337 150.292C249.558 150.289 251.729 150.953 253.568 152.198C255.407 153.442 256.831 155.21 257.654 157.273C257.905 157.887 258.092 158.526 258.211 159.178C258.271 159.4 258.293 159.631 258.278 159.86Z" fill="#455A64"/>
<path d="M234.033 146.083C234.973 146.281 235.821 146.784 236.446 147.514C237.176 148.139 237.674 148.992 237.861 149.935C237.744 149.985 237.203 148.87 236.138 147.813C235.073 146.756 233.975 146.207 234.033 146.083Z" fill="#263238"/>
<path d="M237.952 146.099C238.077 146.141 237.819 147.023 237.869 148.113C237.919 149.202 238.218 150.051 238.102 150.109C237.634 149.559 237.396 148.85 237.436 148.129C237.337 147.411 237.522 146.683 237.952 146.099Z" fill="#455A64"/>
<path d="M259.95 232.735L262.687 242.029L280.109 234.15C279.485 232.203 276.598 223.533 271.091 209.772C269.583 206 267.129 202.679 263.965 200.13C260.802 197.581 257.035 195.891 253.028 195.22C247.535 194.218 241.97 193.661 236.388 193.556C226.62 193.665 212.26 199.771 210.313 209.364C208.832 216.669 210.255 229.574 210.255 245.249L211.528 275.201L261.581 276.865L259.95 232.735Z" fill="#FF725E"/>
<g opacity="0.3">
<path opacity="0.3" d="M210.28 238.326C216.37 239.574 222.618 238.326 228.825 237.952C232.586 237.727 236.762 237.32 239.741 239.616C242.104 241.446 243.069 244.533 243.734 247.445C246.33 258.536 246.796 265.974 247.379 277.347L217.252 279.178L210.28 238.326Z" fill="black"/>
</g>
<path d="M269.626 206.902C269.626 207.027 256.481 207.118 240.273 207.118C224.066 207.118 210.929 207.027 210.929 206.902C210.929 206.777 224.066 206.685 240.273 206.685C256.481 206.685 269.626 206.785 269.626 206.902Z" fill="#FAFAFA"/>
<path d="M273.279 215.313C273.279 215.43 258.985 215.53 241.371 215.53C223.758 215.53 209.464 215.43 209.464 215.313C209.464 215.197 223.741 215.097 241.371 215.097C259.002 215.097 273.279 215.197 273.279 215.313Z" fill="#FAFAFA"/>
<path d="M277.888 225.863C277.888 225.988 262.646 226.079 243.843 226.079C225.039 226.079 209.797 225.988 209.797 225.863C209.797 225.738 225.039 225.647 243.843 225.647C262.646 225.647 277.888 225.747 277.888 225.863Z" fill="#FAFAFA"/>
<path d="M259.584 237.245C259.584 237.361 254.817 237.461 248.951 237.461C243.085 237.461 238.31 237.361 238.31 237.245C238.31 237.128 243.069 237.028 248.951 237.028C254.833 237.028 259.584 237.12 259.584 237.245Z" fill="#FAFAFA"/>
<path d="M260.557 249.6C260.557 249.716 255.565 249.775 249.425 249.725C243.285 249.675 238.293 249.542 238.293 249.417C238.293 249.292 243.285 249.242 249.425 249.292C255.565 249.342 260.557 249.458 260.557 249.6Z" fill="#FAFAFA"/>
<path d="M261.04 259.626C260.752 259.678 260.458 259.692 260.166 259.667L257.779 259.617C255.765 259.576 252.986 259.517 249.916 259.517C246.846 259.517 244.092 259.567 242.054 259.609L239.666 259.659C239.373 259.697 239.077 259.697 238.784 259.659C239.068 259.576 239.362 259.531 239.658 259.526C240.215 259.467 241.03 259.409 242.037 259.351C244.051 259.226 246.838 259.126 249.916 259.126C252.995 259.126 255.782 259.235 257.787 259.359C258.794 259.418 259.609 259.484 260.175 259.542C260.465 259.535 260.756 259.563 261.04 259.626Z" fill="#FAFAFA"/>
<path d="M260.882 267.746C260.882 267.862 255.973 267.962 249.916 267.962C243.859 267.962 238.959 267.862 238.959 267.746C238.959 267.629 243.859 267.53 249.916 267.53C255.973 267.53 260.882 267.621 260.882 267.746Z" fill="#FAFAFA"/>
<path d="M262.371 198.657C262.371 198.781 252.737 198.873 240.856 198.873C228.975 198.873 219.332 198.781 219.332 198.657C219.332 198.532 228.966 198.44 240.856 198.44C252.745 198.44 262.371 198.54 262.371 198.657Z" fill="#FAFAFA"/>
<path d="M261.248 200.221C261.248 200.271 260.749 200.296 259.917 200.62C258.762 201.126 257.765 201.934 257.03 202.958C255.968 204.496 255.371 206.307 255.308 208.175C255.244 210.472 255.423 212.77 255.84 215.03C256.54 219.17 257.473 223.268 258.636 227.302C259.043 228.808 259.384 230.048 259.642 230.988C259.782 231.435 259.891 231.891 259.967 232.353C259.767 231.93 259.606 231.49 259.484 231.038C259.201 230.206 258.802 228.933 258.336 227.386C257.098 223.357 256.125 219.252 255.424 215.097C255.007 212.803 254.84 210.471 254.925 208.141C255.011 206.207 255.665 204.341 256.805 202.775C257.585 201.725 258.651 200.922 259.875 200.462C260.207 200.349 260.55 200.271 260.899 200.229C261.014 200.21 261.132 200.207 261.248 200.221Z" fill="#263238"/>
<path d="M279.552 231.77C278.776 232.312 277.955 232.785 277.098 233.185C275.55 234.017 273.379 235.057 270.949 236.155C268.52 237.253 266.29 238.168 264.659 238.792C263.792 239.167 262.896 239.47 261.98 239.699C262.804 239.24 263.66 238.842 264.543 238.509C266.14 237.811 268.353 236.845 270.774 235.764C273.196 234.682 275.375 233.642 276.956 232.91C277.795 232.472 278.662 232.091 279.552 231.77Z" fill="#263238"/>
<path d="M226.978 275.691L286.782 277.805C291.448 277.972 295.863 279.961 299.08 283.345C302.296 286.73 304.058 291.24 303.988 295.909L301.492 381.322L278.387 380.557L280.109 300.585L226.97 299.187L226.978 275.691Z" fill="#263238"/>
<path d="M202.268 275.691L262.08 277.805C266.746 277.972 271.161 279.961 274.378 283.345C277.594 286.73 279.356 291.24 279.286 295.909L276.79 381.322L253.377 379.467L255.424 300.585L202.284 299.187L202.268 275.691Z" fill="#263238"/>
<path d="M247.029 306.717H241.147V377.196H247.029V306.717Z" fill="#455A64"/>
<path d="M191.784 238.31V290.193C191.784 293.461 193.083 296.595 195.393 298.906C197.704 301.217 200.838 302.515 204.106 302.515H238.659V238.31C238.659 237.589 238.517 236.875 238.241 236.208C237.965 235.542 237.561 234.937 237.051 234.427C236.541 233.917 235.936 233.512 235.269 233.236C234.603 232.961 233.889 232.818 233.168 232.818H197.276C196.554 232.818 195.84 232.961 195.174 233.236C194.508 233.512 193.903 233.917 193.393 234.427C192.883 234.937 192.478 235.542 192.202 236.208C191.926 236.875 191.784 237.589 191.784 238.31Z" fill="#455A64"/>
<path d="M285.151 306.717H201.02C201.02 304.289 201.984 301.962 203.7 300.245C205.416 298.529 207.744 297.565 210.172 297.565H276.041C278.468 297.565 280.796 298.529 282.512 300.245C284.229 301.962 285.193 304.289 285.193 306.717H285.151Z" fill="#455A64"/>
<path d="M238.659 296.375C238.67 296.508 238.67 296.641 238.659 296.774C238.653 297.156 238.605 297.535 238.518 297.906C238.24 299.081 237.627 300.149 236.752 300.981C235.877 301.813 234.779 302.372 233.592 302.59C232.487 302.709 231.375 302.75 230.264 302.715H222.701C217.335 302.715 212.476 302.715 208.965 302.665L204.805 302.607L203.674 302.565C203.539 302.563 203.406 302.549 203.274 302.523C203.404 302.486 203.539 302.47 203.674 302.474L204.805 302.432L208.965 302.357C212.476 302.315 217.335 302.291 222.701 302.282H230.256C231.346 302.326 232.438 302.301 233.526 302.207C234.447 302.05 235.319 301.68 236.072 301.126C237.184 300.306 237.985 299.132 238.343 297.798C238.634 296.924 238.609 296.375 238.659 296.375Z" fill="#263238"/>
<path d="M249.251 306.9C247.538 307.119 245.809 307.191 244.084 307.116C242.361 307.191 240.636 307.119 238.925 306.9C240.636 306.686 242.361 306.614 244.084 306.684C245.809 306.614 247.537 306.686 249.251 306.9Z" fill="#263238"/>
<path d="M274.843 302.964C274.596 302.15 274.423 301.314 274.327 300.468C274.044 298.871 273.67 296.55 273.221 293.688C272.771 290.825 272.463 287.356 270.883 283.92C270.054 282.133 269.006 280.456 267.763 278.928C266.403 277.307 264.824 275.885 263.07 274.701C261.324 273.505 259.404 272.582 257.379 271.964C255.493 271.362 253.534 271.023 251.555 270.957C247.753 270.874 244.275 270.891 241.38 270.833C238.485 270.774 236.13 270.749 234.508 270.699C233.672 270.719 232.836 270.66 232.012 270.525C232.837 270.395 233.672 270.34 234.508 270.358C236.13 270.308 238.476 270.258 241.38 270.225C244.284 270.192 247.72 270.117 251.58 270.167C255.847 270.267 259.994 271.593 263.528 273.986C265.352 275.21 266.989 276.692 268.387 278.387C269.673 279.979 270.749 281.729 271.59 283.595C271.781 284.036 271.939 284.494 272.114 284.935L272.364 285.601C272.422 285.825 272.488 286.05 272.547 286.274C272.671 286.715 272.796 287.156 272.913 287.589C273.029 288.022 273.071 288.463 273.154 288.887C273.445 290.593 273.603 292.157 273.803 293.604C274.169 296.475 274.46 298.813 274.635 300.418C274.781 301.259 274.85 302.111 274.843 302.964Z" fill="#455A64"/>
<path d="M269.818 383.552H268.986C269.046 380.226 268.444 376.922 267.213 373.832C265.982 370.742 264.148 367.929 261.818 365.555C259.488 363.182 256.708 361.297 253.641 360.01C250.574 358.723 247.281 358.061 243.955 358.061C240.629 358.061 237.336 358.723 234.269 360.01C231.202 361.297 228.422 363.182 226.092 365.555C223.762 367.929 221.928 370.742 220.697 373.832C219.466 376.922 218.864 380.226 218.924 383.552H218.092C218.031 380.117 218.654 376.703 219.926 373.512C221.198 370.32 223.093 367.413 225.501 364.962C227.909 362.511 230.781 360.564 233.949 359.235C237.117 357.906 240.519 357.221 243.955 357.221C247.391 357.221 250.792 357.906 253.961 359.235C257.129 360.564 260.001 362.511 262.409 364.962C264.817 367.413 266.712 370.32 267.984 373.512C269.256 376.703 269.879 380.117 269.818 383.552Z" fill="#455A64"/>
<path d="M222.385 384.867C222.385 385.633 222.158 386.383 221.732 387.021C221.306 387.658 220.7 388.155 219.992 388.449C219.283 388.742 218.504 388.819 217.752 388.669C217 388.52 216.309 388.15 215.767 387.608C215.224 387.066 214.855 386.375 214.706 385.623C214.556 384.871 214.633 384.091 214.926 383.383C215.22 382.674 215.717 382.069 216.354 381.643C216.992 381.217 217.741 380.99 218.508 380.99C219.018 380.988 219.522 381.088 219.993 381.282C220.464 381.477 220.892 381.762 221.252 382.123C221.612 382.483 221.898 382.911 222.092 383.382C222.287 383.852 222.386 384.357 222.385 384.867Z" fill="#263238"/>
<path d="M273.47 384.334C273.47 385.101 273.243 385.85 272.817 386.488C272.391 387.126 271.785 387.623 271.077 387.916C270.368 388.209 269.589 388.286 268.837 388.137C268.084 387.987 267.394 387.618 266.851 387.076C266.309 386.533 265.94 385.842 265.79 385.09C265.641 384.338 265.718 383.559 266.011 382.85C266.304 382.142 266.801 381.536 267.439 381.11C268.077 380.684 268.826 380.457 269.593 380.457C270.621 380.457 271.607 380.865 272.334 381.592C273.062 382.32 273.47 383.306 273.47 384.334Z" fill="#263238"/>
<path d="M269.568 377.196C269.568 377.32 258.311 377.42 244.433 377.42C230.556 377.42 219.299 377.32 219.299 377.196C219.299 377.071 230.547 376.979 244.433 376.979C258.319 376.979 269.568 377.079 269.568 377.196Z" fill="#455A64"/>
<path d="M183.706 215.297C184.319 215.684 184.849 216.191 185.263 216.787C185.678 217.383 185.968 218.056 186.118 218.766C186.403 220.197 186.357 221.674 185.985 223.084C185.353 225.813 183.489 228.426 181.492 230.439C179.404 228.134 179.279 224.523 179.329 222.685C179.412 219.781 181.334 214.581 183.706 215.297Z" fill="#FF725E"/>
<path d="M183.672 235.331C183.609 234.524 183.76 233.715 184.109 232.985C184.458 232.254 184.993 231.629 185.661 231.171C186.339 230.724 187.099 230.415 187.898 230.264C188.696 230.113 189.517 230.121 190.312 230.289C190.685 230.328 191.045 230.448 191.367 230.641C191.688 230.834 191.964 231.094 192.175 231.404C192.322 231.723 192.381 232.076 192.346 232.426C192.311 232.775 192.183 233.109 191.976 233.393C191.546 233.959 190.971 234.399 190.312 234.666C188.14 235.697 185.852 236.33 183.656 235.348" fill="#FF725E"/>
<path d="M180.161 241.421C180.277 240.811 180.455 240.214 180.694 239.641C180.926 239.003 181.236 238.397 181.617 237.835C182.052 237.134 182.536 236.464 183.065 235.83C184.038 234.663 185.284 233.754 186.692 233.185C187.121 233.027 187.564 232.913 188.015 232.843C188.181 232.816 188.349 232.816 188.515 232.843C188.515 232.902 187.816 232.977 186.776 233.418C185.436 234.03 184.251 234.934 183.306 236.063C182.784 236.685 182.301 237.338 181.859 238.019C181.478 238.56 181.154 239.14 180.893 239.749C180.69 240.323 180.445 240.882 180.161 241.421Z" fill="#263238"/>
<path d="M182.591 219.382C182.622 219.694 182.622 220.009 182.591 220.322C182.591 220.921 182.508 221.795 182.433 222.868C182.275 225.023 182.017 227.993 181.667 231.271C181.318 234.549 180.902 237.494 180.561 239.591C180.386 240.656 180.244 241.513 180.128 242.087C180.085 242.397 180.015 242.704 179.92 243.002C179.917 242.687 179.945 242.372 180.003 242.062C180.095 241.413 180.203 240.556 180.336 239.566C180.619 237.428 180.993 234.474 181.351 231.196C181.709 227.918 181.983 225.014 182.183 222.818C182.291 221.786 182.383 220.929 182.449 220.272C182.475 219.972 182.522 219.675 182.591 219.382Z" fill="#263238"/>
<path d="M180.028 235.988C179.707 234.305 178.991 232.721 177.938 231.369C176.884 230.016 175.525 228.933 173.971 228.209C173.139 227.852 172.149 227.627 171.517 228.209C170.884 228.792 171.051 229.873 171.384 230.664C172.109 232.332 173.312 233.748 174.842 234.733C176.372 235.718 178.159 236.227 179.978 236.196" fill="#FF725E"/>
<path d="M174.579 230.689C174.736 230.737 174.885 230.81 175.02 230.905C176.701 231.871 178.166 233.174 179.321 234.732C179.776 235.422 180.116 236.18 180.328 236.979C180.492 237.631 180.567 238.303 180.552 238.975C180.541 239.426 180.488 239.874 180.394 240.315C180.372 240.481 180.328 240.644 180.261 240.797C180.195 240.797 180.344 240.09 180.328 238.975C180.311 238.326 180.219 237.681 180.053 237.053C179.83 236.292 179.494 235.568 179.055 234.907C178.214 233.717 177.189 232.669 176.018 231.803C175.516 231.462 175.035 231.09 174.579 230.689Z" fill="#263238"/>
<path d="M179.754 262.379C176.995 262.377 174.349 261.28 172.399 259.328C170.449 257.376 169.354 254.73 169.354 251.971V241.571H190.154V251.971C190.154 254.73 189.058 257.376 187.108 259.328C185.158 261.28 182.513 262.377 179.754 262.379Z" fill="#263238"/>
<path d="M190.162 246.688C190.078 246.795 189.983 246.892 189.879 246.979L189.047 247.753L185.877 250.432L185.802 250.49L185.711 250.44L179.712 246.838H179.887L174.237 250.432L174.154 250.49L174.071 250.424L170.618 247.72L169.67 246.954C169.552 246.868 169.446 246.767 169.354 246.655C169.489 246.71 169.615 246.786 169.728 246.879C169.994 247.071 170.327 247.312 170.726 247.587L174.246 250.199H174.079L179.662 246.522L179.754 246.463L179.845 246.513L185.844 250.191H185.677L188.897 247.587L189.804 246.871C190.037 246.755 190.154 246.671 190.162 246.688Z" fill="#E0E0E0"/>
<path d="M190.162 244.608C190.078 244.715 189.983 244.812 189.879 244.899L189.047 245.673L185.91 248.377L185.836 248.435L185.744 248.385L179.712 244.758H179.887L174.271 248.394L174.188 248.452L174.104 248.385L170.652 245.681L169.703 244.916C169.586 244.83 169.479 244.729 169.387 244.616C169.522 244.672 169.649 244.747 169.761 244.841L170.76 245.548L174.279 248.161H174.113L179.695 244.483L179.787 244.425L179.878 244.475L185.877 248.152H185.711L188.931 245.548L189.837 244.833C190.037 244.675 190.154 244.608 190.162 244.608Z" fill="#E0E0E0"/>
<path d="M190.162 248.768C190.162 248.768 190.07 248.884 189.879 249.067L189.047 249.833L185.91 252.537L185.836 252.603L185.744 252.545L179.712 248.959H179.887L174.271 252.595L174.188 252.653L174.104 252.595C172.715 251.497 171.542 250.582 170.652 249.891L169.703 249.117C169.487 248.934 169.379 248.834 169.387 248.818C169.52 248.877 169.646 248.953 169.761 249.042C170.028 249.242 170.36 249.475 170.76 249.758L174.279 252.362H174.113L179.695 248.685L179.787 248.626L179.878 248.685L185.877 252.354H185.711L188.931 249.741L189.837 249.034C189.933 248.932 190.043 248.842 190.162 248.768Z" fill="#E0E0E0"/>
<path d="M459.73 286.807C455.42 287.506 453.49 292.797 453.906 297.149C454.322 301.5 456.077 305.76 455.57 310.095C454.963 315.611 450.794 320.27 450.312 325.794C449.738 332.309 454.347 338.091 455.72 344.481C456.394 347.593 456.302 350.888 457.459 353.85C458.446 356.372 460.277 358.475 462.641 359.798C465.005 361.121 467.754 361.584 470.421 361.107C473.088 360.63 475.507 359.243 477.265 357.182C479.023 355.121 480.013 352.515 480.064 349.806C480.156 344.814 477.069 340.097 477.443 335.105C477.718 331.419 479.881 327.924 479.423 324.289C478.866 319.921 474.822 316.801 473.391 312.641C471.96 308.481 473.341 303.888 472.842 299.512C471.96 291.666 467.609 286.2 459.738 286.824" fill="#FF725E"/>
<path d="M437.715 324.804C436.975 332.076 440.211 340.612 443.93 346.911C447.715 353.237 453.419 358.192 460.213 361.055C460.97 361.371 461.918 361.637 462.559 361.121C462.787 360.872 462.958 360.576 463.06 360.255C463.162 359.933 463.192 359.592 463.149 359.258C463.205 351.539 460.756 344.01 456.17 337.802C451.584 331.593 445.109 327.038 437.715 324.821" fill="#FF725E"/>
<g opacity="0.2">
<path opacity="0.2" d="M437.715 324.804C436.975 332.076 440.211 340.612 443.93 346.911C447.715 353.237 453.419 358.192 460.213 361.055C460.97 361.371 461.918 361.637 462.559 361.121C462.787 360.872 462.958 360.576 463.06 360.255C463.162 359.933 463.192 359.592 463.149 359.258C463.205 351.539 460.756 344.01 456.17 337.802C451.584 331.593 445.109 327.038 437.715 324.821" fill="black"/>
</g>
<path d="M469.389 376.239C469.302 376.116 469.232 375.981 469.181 375.839L468.657 374.641C468.225 373.61 467.567 372.145 466.735 370.273C464.569 365.498 462.161 360.835 459.522 356.304C456.865 351.778 453.982 347.388 450.886 343.15C449.696 341.528 448.714 340.221 448.024 339.331C447.708 338.915 447.441 338.566 447.242 338.291C447.143 338.175 447.057 338.05 446.984 337.917C446.984 337.917 447.109 338.017 447.3 338.241L448.132 339.231C448.864 340.063 449.879 341.37 451.102 342.975C457.471 351.367 462.809 360.493 467.002 370.157C467.834 372.012 468.416 373.526 468.807 374.583L469.256 375.806C469.314 375.946 469.358 376.091 469.389 376.239Z" fill="#263238"/>
<path d="M464.705 306.925C464.752 307.155 464.78 307.389 464.789 307.624C464.789 308.115 464.872 308.78 464.93 309.629C465.046 311.401 465.205 313.914 465.404 316.992C465.795 323.215 466.344 331.81 467.018 341.295C467.692 350.78 468.341 359.374 468.824 365.589C469.057 368.668 469.248 371.172 469.389 372.952C469.448 373.784 469.489 374.458 469.523 374.949C469.543 375.184 469.543 375.421 469.523 375.656C469.523 375.656 469.481 375.415 469.423 374.957C469.365 374.5 469.298 373.801 469.206 372.961C469.04 371.188 468.807 368.684 468.516 365.614C467.958 359.399 467.251 350.821 466.586 341.328C465.92 331.835 465.429 323.24 465.088 316.992C464.947 313.905 464.83 311.401 464.747 309.621C464.747 308.789 464.697 308.106 464.68 307.607C464.668 307.379 464.676 307.151 464.705 306.925Z" fill="#263238"/>
<path d="M458.016 365.872H476.229V379.242C476.226 381.56 475.304 383.782 473.664 385.42C472.025 387.058 469.802 387.978 467.484 387.978C465.247 387.979 463.095 387.122 461.471 385.583C459.848 384.045 458.876 381.942 458.757 379.708L458.016 365.872Z" fill="#263238"/>
<path d="M365.78 189.604L409.211 213.658L407.58 216.719L364.532 192.217L365.78 189.604Z" fill="#FF725E"/>
<path d="M363.642 187.333L365.639 184.28L366.804 184.995L365.015 188.074L363.642 187.333Z" fill="#FF725E"/>
<path d="M404.277 209.855L406.507 211.137L399.235 257.546L395.791 257.587L404.277 209.855Z" fill="#FF725E"/>
<path d="M385.782 262.379C385.782 262.379 391.082 257.021 398.17 257.387C400.196 257.462 402.187 257.936 404.029 258.783C405.871 259.629 407.528 260.832 408.903 262.321L385.782 262.379Z" fill="#FF725E"/>
<path d="M363.684 208.374L346.486 198.44L351.478 189.846C352.13 188.716 352.998 187.726 354.032 186.932C355.066 186.138 356.247 185.556 357.506 185.218C358.765 184.881 360.079 184.794 361.372 184.965C362.664 185.135 363.911 185.558 365.04 186.21C367.319 187.527 368.983 189.696 369.664 192.238C370.346 194.781 369.99 197.491 368.676 199.772L363.684 208.374Z" fill="#FF725E"/>
</svg>
